<svg width="211" height="240" viewBox="0 0 211 240" fill="none" xmlns="http://www.w3.org/2000/svg">
<g clip-path="url(#clip0_14961_47307)">
<path fill-rule="evenodd" clip-rule="evenodd" d="M15.4884 125.245C30.2868 110.224 49.1057 103.257 68.7762 101.684C98.4826 99.3078 130.138 109.225 153.049 122.572C167.449 130.959 174.585 142.468 186.903 154.367C187.402 154.848 188.157 154.741 188.588 154.127C189.02 153.516 188.966 152.625 188.467 152.147C176.004 140.109 168.754 128.511 154.186 120.025C130.955 106.492 98.8528 96.458 68.7298 98.8655C48.5168 100.482 29.1924 107.702 13.9841 123.138C13.4715 123.658 13.3917 124.549 13.807 125.131C14.2224 125.713 14.9759 125.765 15.4884 125.245Z" fill="url(#paint0_linear_14961_47307)"/>
<path fill-rule="evenodd" clip-rule="evenodd" d="M191.574 154.114C191.532 154.068 191.246 153.772 191.031 153.493C190.132 152.341 188.722 150.147 187.086 147.247C181.611 137.508 173.638 119.839 174.489 106.32C174.538 105.54 174.044 104.893 173.386 104.872C172.728 104.852 172.154 105.465 172.105 106.244C171.219 120.311 179.381 138.758 185.08 148.888C185.844 150.244 186.561 151.457 187.208 152.486C184.041 151.233 180.912 149.883 177.789 148.488C168.801 144.467 160.23 143.234 150.389 144.201C149.731 144.263 149.214 144.949 149.238 145.724C149.26 146.5 149.815 147.079 150.473 147.013C159.944 146.085 168.198 147.266 176.85 151.135C180.931 152.957 185.029 154.703 189.195 156.266C189.61 156.422 190.691 156.812 190.851 156.838C191.764 156.988 192.114 156.135 192.184 155.943C192.218 155.85 192.586 154.675 191.574 154.114ZM190.401 156.638C190.429 156.653 190.457 156.671 190.488 156.686C190.462 156.676 190.434 156.657 190.401 156.638Z" fill="url(#paint1_linear_14961_47307)"/>
</g>
<defs>
<linearGradient id="paint0_linear_14961_47307" x1="26.7465" y1="133.446" x2="51.998" y2="65.5214" gradientUnits="userSpaceOnUse">
<stop stop-color="#01914D"/>
<stop offset="1" stop-color="#0CE47F"/>
</linearGradient>
<linearGradient id="paint1_linear_14961_47307" x1="151.789" y1="152.974" x2="200.873" y2="117.698" gradientUnits="userSpaceOnUse">
<stop stop-color="#01914D"/>
<stop offset="1" stop-color="#0CE47F"/>
</linearGradient>
<clipPath id="clip0_14961_47307">
<rect width="216.431" height="181.751" fill="white" transform="translate(0.835449 214.548) rotate(-82)"/>
</clipPath>
</defs>
</svg>
