<svg width="178" height="174" viewBox="0 0 178 174" fill="none" xmlns="http://www.w3.org/2000/svg">
<g clip-path="url(#clip0_15270_38360)">
<path fill-rule="evenodd" clip-rule="evenodd" d="M28.461 62.2656C41.3293 57.95 55.1309 59.3171 68.3515 63.9703C88.317 70.9982 106.963 85.5193 119.156 99.5144C126.82 108.309 129.064 116.821 134.623 127.014C134.848 127.426 135.365 127.578 135.777 127.353C136.189 127.13 136.342 126.611 136.116 126.2C130.493 115.889 128.191 107.294 120.439 98.3959C108.076 84.2059 89.1615 69.4927 68.9162 62.3653C55.3311 57.5834 41.1448 56.2173 27.9202 60.6519C27.4745 60.8012 27.2341 61.282 27.3833 61.7276C27.5326 62.1733 28.0154 62.4148 28.461 62.2656Z" fill="url(#paint0_linear_15270_38360)"/>
<path fill-rule="evenodd" clip-rule="evenodd" d="M137.737 128.187C137.719 128.149 137.594 127.901 137.512 127.683C137.166 126.779 136.705 125.142 136.247 123.043C134.716 115.999 133.223 103.772 136.636 96.3745C136.833 95.9477 136.646 95.4431 136.219 95.2462C135.793 95.0494 135.287 95.2336 135.09 95.6604C131.539 103.357 132.991 116.077 134.585 123.405C134.799 124.387 135.013 125.274 135.22 126.037C133.409 124.437 131.644 122.793 129.893 121.125C124.853 116.321 119.497 113.209 112.846 110.983C112.401 110.833 111.918 111.074 111.77 111.519C111.62 111.963 111.861 112.447 112.306 112.595C118.708 114.739 123.867 117.732 128.718 122.356C131.008 124.535 133.324 126.676 135.723 128.733C135.962 128.937 136.588 129.463 136.688 129.522C137.254 129.864 137.664 129.481 137.75 129.392C137.792 129.349 138.281 128.789 137.737 128.187ZM136.435 129.282C136.45 129.298 136.464 129.317 136.482 129.334C136.467 129.321 136.453 129.302 136.435 129.282Z" fill="url(#paint1_linear_15270_38360)"/>
</g>
<defs>
<linearGradient id="paint0_linear_15270_38360" x1="34.1053" y1="70.0703" x2="62.5417" y2="36.7227" gradientUnits="userSpaceOnUse">
<stop stop-color="#01914D"/>
<stop offset="1" stop-color="#0CE47F"/>
</linearGradient>
<linearGradient id="paint1_linear_15270_38360" x1="111.91" y1="116.333" x2="149.302" y2="103.679" gradientUnits="userSpaceOnUse">
<stop stop-color="#01914D"/>
<stop offset="1" stop-color="#0CE47F"/>
</linearGradient>
<clipPath id="clip0_15270_38360">
<rect width="130" height="130" fill="white" transform="translate(0 108.583) rotate(-60)"/>
</clipPath>
</defs>
</svg>
