<svg width="61" height="69" viewBox="0 0 61 69" fill="none" xmlns="http://www.w3.org/2000/svg">
<path fill-rule="evenodd" clip-rule="evenodd" d="M44.408 36.9603C45.0494 35.7214 45.555 34.3951 45.9117 33.058C46.6094 30.4426 46.9396 26.6706 46.2815 23.3853C45.8304 21.1334 44.912 19.1118 43.366 17.8054C40.4213 15.3171 36.2891 15.563 32.309 17.311C29.4061 18.5859 26.5873 20.6528 24.4026 22.9675C25.1318 20.7152 25.6543 17.8931 25.388 15.3188C25.0918 12.4327 23.817 9.85894 20.8279 8.64274C14.5798 6.10155 9.68087 9.10078 6.71046 13.9601C3.79308 18.7337 2.76849 25.3125 4.17052 30.0291C4.24544 30.2783 4.50905 30.4193 4.75946 30.3437C5.00986 30.2682 5.15299 30.0045 5.07809 29.7555C3.7437 25.261 4.73736 18.996 7.51805 14.4475C10.2458 9.98484 14.7279 7.1831 20.4645 9.51722C23.0972 10.5885 24.1866 12.8789 24.4477 15.4211C24.7191 18.0659 24.1071 20.9844 23.3292 23.1973C23.1194 23.7964 22.9136 24.3994 22.6992 24.9998C21.3967 26.7667 20.5183 28.5855 20.2563 30.2423C20.1925 30.6534 20.4794 30.7746 20.5615 30.8047C20.6735 30.8458 20.8452 30.8721 21.0294 30.7272C21.064 30.7 21.1268 30.6378 21.1897 30.5376C21.274 30.401 21.4202 30.1059 21.4955 29.9802C21.8093 29.4611 22.0819 28.9074 22.3453 28.3634C22.8051 27.4176 23.1848 26.4363 23.5402 25.4467C23.6575 25.2908 23.7767 25.1359 23.8992 24.9817C26.0996 22.2191 29.334 19.6463 32.6855 18.1743C36.3074 16.5837 40.0719 16.2629 42.7514 18.5272C44.1461 19.7058 44.9463 21.5445 45.3533 23.5761C45.9824 26.7161 45.664 30.3213 44.9972 32.8209C44.5899 34.3477 43.979 35.86 43.1845 37.2308C42.9209 37.6857 42.6038 38.1171 42.2833 38.5343C42.2481 38.5802 42.1952 38.6442 42.1343 38.716C41.9466 38.9084 41.7688 39.1074 41.6014 39.3129C41.5132 39.4212 41.4877 39.4878 41.4831 39.4999C41.3627 39.8171 41.5546 39.983 41.6501 40.0506C41.6785 40.0706 41.9802 40.2703 42.2641 39.9942C42.3215 39.9381 42.6213 39.6014 42.8447 39.3364C44.8495 37.2968 48.0252 36.113 50.8272 36.2207C52.6035 36.2891 54.2329 36.8786 55.284 38.1422C55.9829 38.9825 56.42 40.1173 56.4891 41.5766C56.6556 45.0961 55.3049 48.3645 53.438 51.4162C51.5281 54.538 49.0758 57.4332 47.0816 60.1309C46.9261 60.3411 46.9702 60.6366 47.1802 60.7903C47.39 60.944 47.6866 60.898 47.842 60.6876C49.8518 57.9693 52.3204 55.0498 54.2451 51.9039C56.2126 48.6878 57.61 45.2352 57.4345 41.526C57.3542 39.8282 56.8272 38.5144 56.0141 37.5368C54.7974 36.0739 52.9263 35.3567 50.8699 35.2776C48.7209 35.195 46.3731 35.813 44.408 36.9603Z" fill="url(#paint0_linear_15560_24804)"/>
<defs>
<linearGradient id="paint0_linear_15560_24804" x1="24.5293" y1="5.74823" x2="36.742" y2="64.7282" gradientUnits="userSpaceOnUse">
<stop stop-color="#FF9153"/>
<stop offset="1" stop-color="#FF1810"/>
</linearGradient>
</defs>
</svg>
