<svg width="28" height="31" viewBox="0 0 28 31" fill="none" xmlns="http://www.w3.org/2000/svg">
<path fill-rule="evenodd" clip-rule="evenodd" d="M9.36841 28.4418C6.69482 27.7028 3.89565 27.33 1.18028 26.9885C0.595434 26.9169 0.052442 27.3165 0.0106671 27.8794C-0.0728828 28.4427 0.345111 28.9578 0.888185 29.0294C3.52001 29.3582 6.23513 29.71 8.7834 30.4214C9.32647 30.5757 9.91157 30.2581 10.0787 29.7116C10.2458 29.1656 9.91149 28.5966 9.36841 28.4418Z" fill="url(#paint0_linear_14804_8230)"/>
<path fill-rule="evenodd" clip-rule="evenodd" d="M17.4726 17.9645C13.1698 13.6395 8.3239 9.87126 4.10463 5.43024C3.72866 5.01548 3.06026 4.99325 2.64251 5.38045C2.22476 5.76806 2.18315 6.41983 2.6009 6.83459C6.82017 11.2884 11.6661 15.069 15.9689 19.4067C16.3866 19.8116 17.0549 19.8174 17.4726 19.4191C17.8486 19.0212 17.8904 18.3694 17.4726 17.9645Z" fill="url(#paint1_linear_14804_8230)"/>
<path fill-rule="evenodd" clip-rule="evenodd" d="M25.5358 1.32917C25.6612 3.80459 25.7863 6.28 25.9116 8.75583C25.9116 9.32284 26.4131 9.76065 26.998 9.73308C27.5828 9.7051 28.0003 9.22244 28.0003 8.65502C27.875 6.17549 27.7499 3.69637 27.6246 1.21725C27.5828 0.650241 27.0814 0.215314 26.4966 0.246175C25.9535 0.277035 25.4941 0.762574 25.5358 1.32917Z" fill="url(#paint2_linear_14804_8230)"/>
<defs>
<linearGradient id="paint0_linear_14804_8230" x1="-0.332114" y1="27.2617" x2="1.80327" y2="33.0928" gradientUnits="userSpaceOnUse">
<stop stop-color="#01914D"/>
<stop offset="1" stop-color="#0CE47F"/>
</linearGradient>
<linearGradient id="paint1_linear_14804_8230" x1="1.80026" y1="6.28567" x2="15.6812" y2="20.079" gradientUnits="userSpaceOnUse">
<stop stop-color="#01914D"/>
<stop offset="1" stop-color="#0CE47F"/>
</linearGradient>
<linearGradient id="paint2_linear_14804_8230" x1="25.4523" y1="1.01215" x2="29.6063" y2="2.02612" gradientUnits="userSpaceOnUse">
<stop stop-color="#01914D"/>
<stop offset="1" stop-color="#0CE47F"/>
</linearGradient>
</defs>
</svg>
