<svg width="1440" height="470" viewBox="0 0 1440 470" fill="none" xmlns="http://www.w3.org/2000/svg">
<g opacity="0.25">
<path opacity="0.54" d="M-41.1095 485.526C-58.4238 440.609 -17.1542 403.13 34.6727 398.534C86.5079 393.921 144.109 413.594 197.21 435.887C250.319 458.162 303.563 483.951 358.659 493.544C472.691 513.381 563.309 460.236 638.683 407.311C714.056 354.385 797.408 296.702 910.372 306.344C998.94 313.915 1085.97 361.8 1174.65 388.702C1329.44 435.673 1492.99 413.762 1586.83 333.429" stroke="white" stroke-width="1.01223" stroke-miterlimit="10"/>
<path opacity="0.54" d="M-44.1896 489.112C-61.5284 444.248 -20.7435 406.671 30.7716 401.611C35.3705 401.148 40.0398 400.91 44.7319 400.811C92.5699 399.991 144.563 417.589 192.915 437.42C202.251 441.246 211.594 445.183 220.938 449.119C264.805 467.613 308.994 486.173 354.338 493.876C369.032 496.381 383.358 497.67 397.3 497.906C491.372 499.54 568.193 453.134 633.175 406.585C637.892 403.195 642.64 399.798 647.421 396.396C718.204 346.028 796.59 296.181 900.383 301.886C930.07 303.522 959.83 309.048 990.137 318.027C1025.92 328.614 1061.7 343.678 1096.93 358.181C1120.98 368.081 1144.9 377.75 1169.08 385.879C1180.45 389.7 1191.9 393.155 1203.42 396.217C1276.77 415.736 1352.46 418.995 1419.89 407.318C1487.48 395.611 1546.95 369.208 1591.26 330.388" stroke="white" stroke-width="1.01223" stroke-miterlimit="10"/>
<path opacity="0.54" d="M-47.5773 491.712C-64.9563 446.871 -24.6643 409.214 26.5389 403.69C31.1218 403.199 35.7592 402.903 40.4353 402.775C88.0256 401.542 139.941 418.615 188.336 437.977C197.681 441.723 207.009 445.567 216.361 449.422C260.239 467.517 304.462 485.753 349.725 493.25C364.395 495.68 378.705 496.941 392.639 497.13C486.646 498.459 563.094 451.903 627.4 404.912C632.068 401.499 636.777 398.063 641.486 394.627C711.415 343.755 788.395 294.019 890.168 296.521C919.902 297.242 949.886 301.234 981.042 309.908C1017.86 320.155 1054.76 336.23 1090.41 351.874C1114.75 362.545 1138.81 373.11 1163.23 382.097C1174.73 386.321 1186.29 390.169 1198.01 393.604C1272.62 415.486 1351.29 419.482 1420.55 407.155C1489.96 394.815 1550.32 366.703 1595.37 326.332" stroke="white" stroke-width="1.01223" stroke-miterlimit="10"/>
<path opacity="0.54" d="M-52.6135 496.03C-70.0171 451.242 -30.2336 413.476 20.6736 407.516C25.2165 406.985 29.822 406.632 34.4821 406.475C81.8571 404.823 133.671 421.36 182.101 440.271C191.431 443.924 200.8 447.681 210.136 451.444C254.024 469.14 298.257 487.041 343.464 494.342C358.102 496.715 372.38 497.918 386.297 498.079C480.207 499.11 556.306 452.415 619.945 404.964C624.573 401.511 629.209 398.041 633.87 394.583C702.955 343.19 778.576 293.522 878.257 292.851C908.072 292.653 938.239 295.134 970.266 303.515C1008.14 313.403 1046.13 330.507 1082.21 347.308C1106.85 358.763 1131.01 370.228 1155.68 380.057C1167.28 384.691 1179.01 388.936 1190.92 392.734C1266.79 416.978 1348.42 421.728 1419.51 408.751C1490.76 395.761 1552.01 365.957 1597.8 324.046" stroke="white" stroke-width="1.01223" stroke-miterlimit="10"/>
<path opacity="0.54" d="M-55.6756 499.602C-73.0953 454.85 -33.8046 417.003 16.7668 410.568C21.3019 409.991 25.8591 409.616 30.4873 409.401C77.6229 407.319 129.352 423.348 177.817 441.808C187.163 445.363 196.508 449.045 205.877 452.738C249.776 470.036 294.051 487.595 339.194 494.718C353.807 497.016 368.069 498.19 381.954 498.294C475.79 499.038 551.501 452.163 614.513 404.293C619.092 400.818 623.688 397.308 628.285 393.798C696.518 341.902 770.814 292.17 868.369 288.459C898.249 287.312 928.647 288.304 961.514 296.399C1000.46 305.939 1039.53 324.06 1076.04 342.002C1100.95 354.246 1125.26 366.589 1150.2 377.289C1161.9 382.314 1173.8 386.957 1185.9 391.145C1263.02 417.77 1347.63 423.239 1420.55 409.629C1493.62 396.006 1555.76 364.494 1602.32 321.043" stroke="white" stroke-width="1.01223" stroke-miterlimit="10"/>
<path opacity="0.54" d="M-59.0541 502.205C-76.5224 457.494 -37.7079 419.533 12.5436 412.651C17.0386 412.033 21.5881 411.612 26.2002 411.369C73.0965 408.856 124.74 424.378 173.248 442.369C182.603 445.843 191.956 449.444 201.31 453.045C245.219 469.944 289.528 487.179 334.591 494.095C349.172 496.336 363.401 497.453 377.303 497.522C471.074 497.961 546.404 450.953 608.748 402.624C613.288 399.109 617.803 395.582 622.359 392.033C689.74 339.633 762.729 289.738 858.15 283.069C888.15 280.978 918.691 280.483 952.414 288.255C992.402 297.455 1032.58 316.587 1069.55 335.68C1094.76 348.707 1119.21 361.945 1144.36 373.493C1156.2 378.922 1168.2 383.956 1180.51 388.518C1258.9 417.506 1346.47 423.729 1421.22 409.469C1496.1 395.185 1559.15 361.992 1606.46 317.001" stroke="white" stroke-width="1.01223" stroke-miterlimit="10"/>
<path opacity="0.54" d="M-63.0915 506.146C-80.576 461.471 -42.2782 423.418 7.68568 416.083C12.1406 415.426 16.6822 414.958 21.2543 414.675C67.9271 411.761 119.477 426.728 167.988 444.275C177.352 447.668 186.698 451.159 196.06 454.679C239.971 471.196 284.298 488.079 329.305 494.799C343.862 496.965 358.084 498.037 371.944 498.065C465.642 498.217 540.608 451.042 602.277 402.27C606.768 398.733 611.244 395.166 615.727 391.583C682.256 338.68 753.979 288.534 847.216 279.011C877.321 275.948 908.029 273.977 942.616 281.474C983.653 290.315 1024.93 310.476 1062.32 330.727C1087.82 344.526 1112.4 358.659 1137.79 371.065C1149.73 376.904 1161.9 382.335 1174.41 387.271C1254.06 418.622 1344.61 425.581 1421.18 410.688C1497.89 395.772 1561.83 360.87 1609.89 314.339" stroke="white" stroke-width="1.01223" stroke-miterlimit="10"/>
<path opacity="0.54" d="M-66.462 508.731C-83.9951 464.097 -46.1575 425.957 3.46242 418.164C7.90131 417.478 12.4029 416.971 16.9672 416.642C63.4008 413.297 114.866 427.757 163.42 444.835C172.768 448.136 182.146 451.557 191.493 454.985C235.439 471.114 279.784 487.644 324.702 494.175C339.227 496.284 353.44 497.31 367.269 497.281C460.894 497.145 535.488 449.82 596.489 400.588C600.916 397 605.343 393.411 609.779 389.805C675.455 336.398 745.881 285.881 836.974 273.608C867.201 269.537 898.05 266.142 933.517 273.329C975.604 281.812 1017.99 303.002 1055.8 324.393C1081.61 338.975 1106.3 353.991 1131.96 367.268C1144.03 373.51 1156.3 379.333 1169.02 384.643C1249.93 418.374 1343.45 426.069 1421.85 410.527C1500.39 394.961 1565.22 358.367 1614.01 310.286" stroke="white" stroke-width="1.01223" stroke-miterlimit="10"/>
<path opacity="0.54" d="M-70.4997 512.691C-88.0572 468.11 -50.728 429.861 -1.39559 421.616C3.01146 420.872 7.49708 420.336 12.0213 419.967C58.2397 416.203 109.579 430.116 158.193 446.754C167.557 449.956 176.92 453.285 186.275 456.632C230.232 472.363 274.611 488.569 319.449 494.893C333.966 496.956 348.123 497.912 361.959 497.866C455.495 497.415 529.741 449.95 590.067 400.277C594.446 396.666 598.833 393.037 603.204 389.379C668.004 335.458 737.158 284.517 826.098 269.575C856.454 264.48 887.469 259.672 923.752 266.561C966.88 274.703 1010.37 296.904 1048.62 319.435C1074.71 334.789 1099.52 350.718 1125.42 364.853C1137.6 371.487 1150.03 377.725 1162.94 383.397C1245.11 419.491 1341.57 427.912 1421.83 411.749C1502.19 395.55 1567.91 357.23 1617.45 307.626" stroke="white" stroke-width="1.01223" stroke-miterlimit="10"/>
<path opacity="0.54" d="M-73.8552 515.261C-91.453 470.704 -54.5921 432.386 -5.59537 423.665C-1.20432 422.892 3.24943 422.299 7.73363 421.89C53.7045 417.713 104.967 431.101 153.615 447.288C162.988 450.409 172.36 453.657 181.724 456.923C225.691 472.255 270.08 488.125 314.862 494.254C329.355 496.242 343.495 497.17 357.3 497.067C450.762 496.328 524.636 448.713 584.319 398.591C588.649 394.957 592.972 391.278 597.295 387.598C661.243 333.172 729.094 281.687 815.888 264.185C846.359 258.037 877.531 251.835 914.686 258.431C958.864 266.214 1003.46 289.426 1042.16 313.126C1068.54 329.28 1093.48 346.075 1119.64 361.081C1131.93 368.125 1144.52 374.76 1157.63 380.805C1241.05 419.28 1340.49 428.437 1422.58 411.624C1504.76 394.792 1571.41 354.775 1621.67 303.62" stroke="white" stroke-width="1.01223" stroke-miterlimit="10"/>
<path opacity="0.54" d="M-76.8974 518.844C-94.5197 474.339 -58.1589 435.895 -9.49009 426.744C-5.1391 425.932 -0.7254 425.299 3.77509 424.855C49.5308 420.258 100.692 433.11 149.376 448.846C158.733 451.875 168.113 455.042 177.485 458.227C221.455 473.177 265.894 488.689 310.588 494.629C325.049 496.559 339.157 497.43 352.953 497.281C446.343 496.255 519.844 448.489 578.861 397.908C583.151 394.234 587.425 390.531 591.676 386.818C654.772 331.889 721.305 279.766 805.976 259.78C836.569 252.561 867.882 244.998 905.909 251.302C951.137 258.727 996.836 282.967 1035.95 307.825C1062.65 324.762 1087.69 342.441 1114.1 358.306C1126.51 365.752 1139.22 372.78 1152.53 379.199C1237.22 420.036 1339.62 429.929 1423.54 412.467C1507.56 394.985 1575.09 353.277 1626.11 300.582" stroke="white" stroke-width="1.01223" stroke-miterlimit="10"/>
<path opacity="0.54" d="M-81.9228 523.228C-99.5855 478.748 -63.7169 440.223 -15.3356 430.619C-11.0164 429.75 -6.61873 429.088 -2.15831 428.604C43.3583 423.577 94.4341 435.921 143.129 451.195C152.495 454.143 161.892 457.212 171.248 460.304C215.228 474.856 259.702 490.044 304.339 495.787C318.776 497.643 332.868 498.485 346.656 498.29C439.981 496.959 513.086 449.032 571.452 398.019C575.694 394.323 579.904 390.57 584.114 386.816C646.358 331.383 711.518 278.554 794.115 256.17C824.814 247.851 856.292 238.94 895.166 244.94C941.435 252.024 988.243 277.276 1027.79 303.274C1054.77 320.983 1079.95 339.556 1106.59 356.279C1119.11 364.136 1131.98 371.56 1145.49 378.353C1231.45 421.552 1336.82 432.183 1422.57 414.088C1508.41 395.974 1576.83 352.557 1628.6 298.323" stroke="white" stroke-width="1.01223" stroke-miterlimit="10"/>
<path opacity="0.54" d="M-85.2957 525.831C-102.983 481.403 -67.5983 442.781 -19.5525 432.701C-15.2494 431.803 -10.8835 431.084 -6.43082 430.554C38.8466 425.097 89.8453 436.916 138.575 451.738C147.958 454.588 157.331 457.582 166.696 460.593C210.687 474.746 255.17 489.599 299.752 495.147C314.156 496.946 328.249 497.725 341.996 497.489C435.248 495.871 507.981 447.793 565.68 396.321C569.882 392.585 574.044 388.809 578.182 385.021C639.582 329.068 703.321 275.447 783.89 250.75C814.704 241.315 846.355 231.101 886.077 236.797C933.395 243.523 981.304 269.803 1021.31 296.952C1048.59 315.444 1073.9 334.929 1100.79 352.495C1113.44 360.754 1126.44 368.582 1140.14 375.737C1227.35 421.317 1335.69 432.684 1423.27 413.939C1510.94 395.176 1580.25 350.067 1632.75 294.283" stroke="white" stroke-width="1.01223" stroke-miterlimit="10"/>
<path opacity="0.54" d="M-88.3078 529.405C-106.035 485.001 -71.1429 446.298 -23.3845 435.766C-19.1214 434.828 -14.7715 434.08 -10.3507 433.492C34.7035 427.634 85.601 438.917 134.366 453.288C143.757 456.056 153.123 458.941 162.489 461.889C206.49 475.643 251.015 490.154 295.509 495.513C309.881 497.254 323.941 497.976 337.681 497.695C430.836 495.778 503.229 447.543 560.253 395.629C564.382 391.859 568.504 388.043 572.594 384.233C633.143 327.775 695.429 273.304 774.027 246.364C804.915 235.772 836.763 224.268 877.357 229.67C925.724 236.038 974.733 263.347 1015.16 291.654C1042.71 310.935 1068.17 331.297 1095.3 349.721C1108.06 358.373 1121.2 366.587 1135.1 374.133C1223.57 422.075 1334.88 434.179 1424.28 414.802C1513.78 395.407 1583.98 348.589 1637.24 291.265" stroke="white" stroke-width="1.01223" stroke-miterlimit="10"/>
<path opacity="0.54" d="M-92.6453 532.359C-110.397 488.008 -76.0129 449.196 -28.5741 438.217C-24.351 437.239 -20.0089 436.444 -15.6281 435.817C29.187 429.528 80.0075 440.286 128.807 454.206C138.183 456.882 147.582 459.697 156.964 462.547C200.991 475.931 245.535 490.089 289.949 495.241C304.297 496.908 318.341 497.601 332.064 497.291C425.146 495.087 497.167 446.701 553.549 394.339C557.638 390.529 561.712 386.69 565.729 382.846C625.426 325.885 686.236 270.489 762.871 241.352C793.842 229.586 825.87 216.825 867.312 221.924C916.72 227.951 966.813 256.259 1007.7 285.718C1035.55 305.782 1061.12 327.028 1088.52 346.322C1101.38 355.383 1114.68 363.994 1128.78 371.913C1218.52 422.218 1332.8 435.076 1424.03 415.05C1515.36 395.005 1586.44 346.496 1640.45 287.633" stroke="white" stroke-width="1.01223" stroke-miterlimit="10"/>
<path opacity="0.54" d="M-95.6802 535.985C-113.472 491.657 -79.5562 452.776 -32.4528 441.322C-28.2375 440.298 -23.9354 439.463 -19.5706 438.807C25.0295 432.099 75.7405 442.338 124.56 455.779C133.944 458.374 143.327 461.096 152.718 463.865C196.756 476.85 241.309 490.674 285.667 495.63C299.984 497.239 313.995 497.875 327.71 497.519C420.728 495.01 492.377 446.474 548.083 393.669C552.125 389.837 556.126 385.964 560.111 382.063C618.957 324.598 678.211 268.198 752.954 236.961C783.96 223.998 816.225 209.986 858.538 214.792C908.995 220.46 960.189 249.798 1001.5 280.396C1029.64 301.232 1055.34 323.372 1082.98 343.526C1095.97 352.99 1109.39 361.993 1123.69 370.286C1214.69 422.971 1331.94 436.548 1425 415.889C1518.15 395.212 1590.12 344.995 1644.89 284.592" stroke="white" stroke-width="1.01223" stroke-miterlimit="10"/>
<path opacity="0.54" d="M-100.02 538.961C-117.837 494.686 -84.4205 455.679 -37.6126 443.789C-33.4373 442.724 -29.1753 441.85 -24.8182 441.148C19.5428 434.009 70.1686 443.741 119.023 456.73C128.424 459.227 137.816 461.869 147.191 464.545C191.24 477.131 235.835 490.614 280.105 495.381C294.397 496.915 308.393 497.522 322.076 497.109C415.02 494.313 486.297 445.625 541.337 392.361C545.339 388.489 549.292 384.594 553.205 380.659C611.199 322.69 668.874 265.274 741.758 231.931C772.782 217.742 805.315 202.537 848.475 207.039C899.982 212.349 952.276 242.715 994.044 274.465C1022.49 296.084 1048.29 319.125 1076.18 340.12C1089.27 349.993 1102.85 359.393 1117.34 368.049C1209.6 423.096 1329.81 437.428 1424.7 416.12C1519.69 394.793 1592.54 342.885 1648.06 280.942" stroke="white" stroke-width="1.01223" stroke-miterlimit="10"/>
<path opacity="0.54" d="M-103.016 542.519C-120.849 498.279 -87.9486 459.18 -41.4603 446.843C-37.301 445.75 -33.0707 444.818 -28.7297 444.087C15.3842 436.535 65.9411 445.725 114.83 458.263C124.24 460.679 133.616 463.228 143 465.824C187.059 478.011 231.689 491.17 275.879 495.73C290.139 497.207 304.126 497.768 317.801 497.309C410.673 494.225 481.578 445.387 535.952 391.663C539.905 387.768 543.794 383.822 547.659 379.865C604.802 321.392 660.809 262.897 731.913 227.528C762.941 212.086 795.742 195.687 839.741 199.902C892.289 204.872 945.691 236.249 987.882 269.156C1016.61 291.546 1042.55 315.482 1070.7 337.347C1083.93 347.624 1097.64 357.427 1112.33 366.456C1205.84 423.883 1329.04 438.934 1425.75 416.994C1522.56 395.036 1596.3 341.419 1652.55 277.926" stroke="white" stroke-width="1.01223" stroke-miterlimit="10"/>
<path opacity="0.54" d="M-106.035 546.132C-123.916 501.933 -91.4755 462.747 -45.2984 449.946C-41.171 448.796 -36.9567 447.835 -32.6557 447.065C11.2432 439.093 61.6909 447.764 110.615 459.852C120.009 462.175 129.426 464.637 138.787 467.158C182.856 478.947 227.496 491.77 271.654 496.146C285.882 497.565 299.846 498.051 313.504 497.564C406.288 494.164 476.845 445.187 530.544 391.02C534.457 387.086 538.298 383.117 542.09 379.126C598.382 320.149 652.714 260.529 722.055 223.163C753.061 206.455 786.146 188.892 831.025 192.797C884.622 197.408 939.133 229.797 981.746 263.861C1010.77 287.052 1036.85 311.865 1065.22 334.595C1078.55 345.264 1092.39 355.47 1107.29 364.873C1202.09 424.674 1328.22 440.468 1426.77 417.861C1525.41 395.27 1600.04 339.945 1657.05 274.913" stroke="white" stroke-width="1.01223" stroke-miterlimit="10"/>
<path opacity="0.54" d="M-110.37 549.129C-128.268 504.966 -96.3432 465.688 -50.4773 452.423C-46.3899 451.232 -42.1916 450.243 -37.9224 449.415C5.73757 441.013 56.1082 449.159 105.068 460.796C114.47 463.038 123.872 465.408 133.273 467.841C177.345 479.249 222.035 491.713 266.113 495.882C280.318 497.227 294.265 497.685 307.883 497.157C400.594 493.47 470.755 444.331 523.836 389.727C527.677 385.759 531.501 381.762 535.254 377.73C590.694 318.25 643.271 257.489 710.921 218.16C741.858 200.164 775.283 181.44 821.026 185.07C875.671 189.324 931.282 222.741 974.326 257.945C1003.66 281.919 1029.85 307.615 1058.45 331.204C1071.91 342.293 1085.9 352.886 1101 362.662C1197.06 424.825 1326.16 441.356 1426.54 418.117C1527 394.877 1602.55 337.872 1660.28 271.289" stroke="white" stroke-width="1.01223" stroke-miterlimit="10"/>
<path opacity="0.54" d="M-114.354 553.111C-132.3 508.989 -100.859 469.613 -55.3042 455.883C-51.2328 454.665 -47.0663 453.618 -42.8131 452.761C0.623767 443.958 50.8934 451.568 99.8721 462.724C109.292 464.868 118.694 467.175 128.079 469.516C172.162 480.525 216.886 492.665 260.884 496.627C275.056 497.915 288.971 498.315 302.582 497.741C395.22 493.767 465.018 444.46 517.424 389.414C521.225 385.405 524.977 381.374 528.681 377.321C583.246 317.325 634.044 255.411 700.051 214.141C730.919 194.857 764.7 175.003 811.274 178.3C866.96 182.213 923.68 216.641 967.171 253.015C996.783 277.76 1023.11 304.351 1051.98 328.809C1065.55 340.291 1079.69 351.298 1094.98 361.436C1192.29 425.98 1324.36 443.247 1426.57 419.359C1528.85 395.487 1605.3 336.757 1663.78 268.652" stroke="white" stroke-width="1.01223" stroke-miterlimit="10"/>
<path opacity="0.54" d="M-118.676 556.073C-136.638 511.986 -105.681 472.512 -60.4537 458.353C-56.4223 457.094 -52.2635 456.002 -48.0503 455.105C-4.85238 445.871 45.3402 452.956 94.3458 463.679C103.774 465.742 113.169 467.939 122.563 470.199C166.68 480.82 211.39 492.615 255.332 496.381C269.481 497.594 283.38 497.965 296.982 497.346C389.555 493.067 458.973 443.626 510.714 388.12C514.466 384.089 518.178 380.018 521.81 375.931C575.532 315.414 624.479 252.313 688.891 209.126C719.65 188.513 753.811 167.54 801.248 170.562C857.983 174.117 915.803 209.573 959.725 247.087C989.642 272.615 1016.08 300.107 1045.19 325.406C1058.87 337.28 1073.14 348.69 1088.63 359.202C1187.21 426.107 1322.23 444.101 1426.28 419.592C1530.4 395.071 1607.73 334.649 1666.96 265.005" stroke="white" stroke-width="1.01223" stroke-miterlimit="10"/>
<path opacity="0.54" d="M-121.667 559.697C-139.678 515.651 -109.204 476.08 -64.2883 461.456C-60.2646 460.151 -56.1541 459.036 -51.9727 458.082C-9.01368 448.418 41.0938 454.995 90.1427 465.25C99.5554 467.221 108.983 469.348 118.361 471.515C162.489 481.738 207.234 493.208 251.096 496.768C265.212 497.923 279.103 498.249 292.673 497.572C385.174 493.006 454.229 443.396 505.295 387.448C509.007 383.377 512.647 379.273 516.231 375.163C569.102 314.142 616.125 249.821 679.014 204.749C709.632 182.815 744.197 160.733 792.514 163.445C850.322 166.653 909.217 203.127 953.57 241.78C983.761 268.097 1010.34 296.466 1039.72 322.636C1053.52 334.93 1067.94 346.726 1083.63 357.612C1183.47 426.88 1321.45 445.628 1427.34 420.469C1533.28 395.316 1611.5 333.187 1671.46 261.992" stroke="white" stroke-width="1.01223" stroke-miterlimit="10"/>
<path opacity="0.54" d="M-124.988 562.302C-143.015 518.292 -113.057 478.628 -68.4279 463.552C-64.4442 462.207 -60.3655 461.034 -56.176 460.063C-13.4318 449.979 36.5746 456.021 85.6505 465.842C95.0717 467.732 104.492 469.749 113.871 471.853C158.001 481.694 202.796 492.806 246.57 496.176C260.662 497.257 274.513 497.542 288.075 496.819C380.479 491.955 449.186 442.206 499.586 385.798C503.25 381.705 506.85 377.56 510.37 373.399C562.39 311.873 607.482 246.349 668.865 199.359C699.301 176.063 734.319 152.895 783.474 155.321C842.323 158.189 902.327 195.674 947.134 235.478C977.632 262.578 1004.32 291.83 1033.94 318.859C1047.85 331.545 1062.41 343.727 1078.3 355.003C1179.4 426.651 1320.35 446.118 1428.06 420.328C1535.81 394.514 1614.94 330.705 1675.65 257.972" stroke="white" stroke-width="1.01223" stroke-miterlimit="10"/>
<path opacity="0.54" d="M-128.964 566.287C-147.04 522.318 -117.541 482.568 -73.256 467.034C-69.3123 465.649 -65.2414 464.43 -61.0919 463.418C-18.5947 452.922 31.3347 458.438 80.43 467.78C89.8598 469.589 99.2884 471.525 108.684 473.531C152.825 482.974 197.63 493.75 241.348 496.925C255.409 497.948 269.251 498.187 282.805 497.418C375.145 492.249 443.473 442.367 493.207 385.499C496.831 381.366 500.358 377.187 503.83 373.003C554.999 310.974 598.087 244.213 658.053 195.366C688.299 170.726 723.802 146.467 773.804 148.589C833.701 151.098 894.805 189.612 940.036 230.573C970.815 258.445 997.641 288.592 1027.5 316.479C1041.53 329.586 1056.23 342.153 1072.33 353.803C1174.69 427.813 1318.61 448.035 1428.15 421.596C1537.72 395.15 1617.74 329.633 1679.2 255.36" stroke="white" stroke-width="1.01223" stroke-miterlimit="10"/>
<path opacity="0.54" d="M-132.285 568.915C-150.377 524.981 -121.395 485.139 -77.3962 469.152C-73.4602 467.72 -69.4375 466.479 -65.2876 465.404C-23.0052 454.489 26.8233 459.469 75.9537 468.359C85.3762 470.058 94.8051 471.931 104.209 473.856C148.361 482.9 193.2 493.353 236.862 496.331C250.891 497.297 264.709 497.462 278.239 496.682C370.506 491.225 438.471 441.175 487.555 383.876C491.13 379.72 494.61 375.519 498.017 371.284C548.335 308.751 589.388 240.759 647.952 190.021C677.97 163.996 713.964 138.691 764.838 140.52C825.783 142.672 887.987 182.214 933.648 224.316C964.733 252.97 991.688 284.029 1021.8 312.757C1035.94 326.256 1050.79 339.238 1067.07 351.25C1170.69 427.64 1317.58 448.581 1428.97 421.504C1540.37 394.427 1621.28 327.201 1683.5 251.39" stroke="white" stroke-width="1.01223" stroke-miterlimit="10"/>
<path opacity="0.54" d="M-136.258 572.923C-154.398 529.03 -125.866 489.084 -82.2112 472.639C-78.3153 471.168 -74.3003 469.88 -70.1904 468.765C-28.1468 457.419 21.5966 461.892 70.7621 470.331C80.1932 471.95 89.6389 473.724 99.0195 475.574C143.182 484.219 188.063 494.331 231.638 497.12C245.642 498.011 259.444 498.147 272.942 497.31C365.137 491.565 432.73 441.364 481.148 383.606C484.659 379.398 488.09 375.175 491.458 370.9C540.925 307.863 579.91 238.646 637.097 186.028C666.877 158.636 703.38 132.251 755.1 133.777C817.086 135.588 880.399 176.141 926.491 219.383C957.857 248.808 984.947 280.762 1015.3 310.349C1029.55 324.24 1044.53 337.625 1061.02 350.01C1165.9 428.762 1315.76 450.441 1428.98 422.732C1542.2 395.006 1623.99 326.089 1686.97 248.739" stroke="white" stroke-width="1.01223" stroke-miterlimit="10"/>
<path opacity="0.54" d="M-139.559 575.536C-157.716 531.679 -129.7 491.641 -86.3558 474.731C-82.4759 473.231 -78.4927 471.887 -74.4228 470.732C-32.6021 458.984 17.0403 462.921 66.2492 470.892C75.6889 472.429 85.1192 474.111 94.5165 475.863C138.69 484.109 183.581 493.885 227.099 496.479C241.072 497.313 254.866 497.403 268.356 496.52C360.478 490.488 427.684 440.107 475.452 381.917C478.915 377.687 482.306 373.424 485.601 369.115C534.218 305.574 571.079 235.128 626.954 180.617C656.448 151.836 693.523 124.422 746.091 125.644C809.125 127.097 873.546 168.661 920.076 213.089C951.74 243.315 978.95 276.134 1009.57 306.591C1023.94 320.902 1039.07 334.673 1055.76 347.432C1161.9 428.546 1314.72 450.98 1429.77 422.622C1544.82 394.264 1627.5 323.639 1691.23 244.75" stroke="white" stroke-width="1.01223" stroke-miterlimit="10"/>
<path opacity="0.54" d="M-143.503 579.516C-161.708 535.7 -134.176 495.564 -91.1268 478.218C-87.2869 476.679 -83.3196 475.305 -79.2574 474.104C-37.6755 461.926 11.89 465.338 61.1259 472.875C70.5742 474.331 80.0212 475.915 89.3949 477.592C133.594 485.468 178.504 494.892 221.943 497.279C235.891 498.038 249.645 498.088 263.127 497.159C355.161 490.811 422.011 440.308 469.114 381.658C472.537 377.388 475.856 373.091 479.102 368.76C526.869 304.715 561.574 233.044 616.16 176.653C645.368 146.482 683 118.01 736.438 118.94C800.522 120.035 866.042 162.628 913.003 208.195C944.973 239.204 972.295 272.906 1003.15 304.222C1017.63 318.925 1032.92 333.111 1049.79 346.232C1157.19 429.726 1312.98 452.879 1429.85 423.889C1546.73 394.882 1630.3 322.567 1694.76 242.127" stroke="white" stroke-width="1.01223" stroke-miterlimit="10"/>
<path opacity="0.54" d="M-147.476 583.524C-165.698 539.743 -138.656 499.526 -95.9426 481.705C-92.1344 480.108 -88.1831 478.706 -84.1609 477.465C-42.8177 464.856 6.66266 467.761 55.9179 474.818C65.3589 476.165 74.8063 477.685 84.2208 479.275C128.431 486.753 173.383 495.835 216.734 498.033C230.65 498.734 244.396 498.739 257.846 497.752C349.807 491.116 416.295 440.445 462.723 381.353C466.098 377.061 469.377 372.723 472.551 368.358C519.467 303.809 551.984 230.921 605.322 172.625C634.188 141.06 672.424 111.553 726.71 112.178C791.833 112.933 858.461 156.537 905.854 203.244C938.106 235.025 965.563 269.621 996.652 301.814C1011.27 316.92 1026.66 331.497 1043.74 344.992C1152.4 430.848 1311.16 454.755 1429.86 425.116C1548.56 395.478 1633.02 321.455 1698.23 239.476" stroke="white" stroke-width="1.01223" stroke-miterlimit="10"/>
<path opacity="0.54" d="M-150.756 586.126C-169.001 542.398 -142.468 502.072 -100.041 483.798C-96.2483 482.172 -92.3529 480.701 -88.3226 479.443C-47.1941 466.415 2.18545 468.783 51.4677 475.407C60.9172 476.673 70.3731 478.112 79.7722 479.61C123.993 486.689 168.955 495.436 212.25 497.438C226.159 498.094 239.849 498.029 253.306 497.025C345.195 490.102 411.311 439.28 457.098 379.739C460.433 375.407 463.64 371.036 466.774 366.631C512.847 301.56 543.16 227.489 595.25 167.289C623.774 134.329 662.623 103.77 717.78 104.103C783.952 104.5 851.679 149.132 899.503 196.979C932.061 229.542 959.622 265.04 990.983 298.084C1005.7 313.6 1021.26 328.574 1038.54 342.443C1148.47 430.66 1310.19 455.305 1430.71 425.035C1551.24 394.747 1636.61 319.045 1702.55 235.516" stroke="white" stroke-width="1.01223" stroke-miterlimit="10"/>
<path opacity="0.54" d="M-154.684 590.113C-174.6 542.513 -141.923 498.813 -93.1815 482.783C-44.4483 466.769 16.2034 472.453 74.6346 481.289C133.066 490.125 192.845 501.958 248.085 497.626C346.559 489.88 415.069 431.794 460.26 366.226C505.483 300.651 533.543 225.375 584.441 163.275C612.6 128.909 652.101 97.3373 708.104 97.3668C775.325 97.4055 844.152 143.067 892.422 192.082C940.693 241.098 977.861 296.653 1032.57 341.239C1143.75 431.836 1308.44 457.218 1430.79 426.299C1553.14 395.379 1639.4 317.969 1706.09 232.901" stroke="white" stroke-width="1.01223" stroke-miterlimit="10"/>
</g>
</svg>
