<svg width="208" height="218" viewBox="0 0 208 218" fill="none" xmlns="http://www.w3.org/2000/svg">
<rect x="57.4553" y="28.4523" width="93.0909" height="93.0901" rx="46.5451" stroke="url(#paint0_linear_15535_28374)" stroke-width="2.36364"/>
<g clip-path="url(#clip0_15535_28374)">
<g filter="url(#filter0_d_15535_28374)">
<path fill-rule="evenodd" clip-rule="evenodd" d="M110.305 53.0888C110.622 53.2654 110.871 53.5431 111.012 53.8777C111.153 54.2123 111.178 54.5845 111.082 54.9348L106.766 70.7579H122.514C122.83 70.7579 123.14 70.8505 123.405 71.0242C123.67 71.1979 123.878 71.4452 124.004 71.7357C124.13 72.0261 124.169 72.3472 124.115 72.6592C124.061 72.9713 123.917 73.2608 123.701 73.4922L100.951 97.8671C100.703 98.1332 100.373 98.3085 100.014 98.3649C99.655 98.4214 99.2873 98.3558 98.9698 98.1786C98.6523 98.0014 98.4035 97.7228 98.263 97.3875C98.1225 97.0521 98.0986 96.6794 98.195 96.3288L102.511 80.5079H86.7636C86.4469 80.5079 86.1371 80.4153 85.8723 80.2416C85.6075 80.0679 85.3993 79.8206 85.2731 79.5301C85.147 79.2396 85.1085 78.9186 85.1623 78.6066C85.2162 78.2945 85.36 78.005 85.5762 77.7736L108.326 53.3987C108.574 53.1336 108.904 52.959 109.262 52.9029C109.621 52.8467 109.988 52.9122 110.305 53.0888Z" fill="url(#paint1_linear_15535_28374)"/>
</g>
</g>
<path d="M102.552 6.84412H106.939V8.19297H102.552V6.84412ZM102.678 10.6259H107.657V12H101.039V3.17576L107.481 3.17576V4.54982H102.678V10.6259Z" fill="white"/>
<path d="M113.102 12.504L117.811 8.27602L117.552 9.48404L115.122 3.91217L116.935 4.29917L118.746 8.42416L118.003 8.27853L121.323 5.2364L123.062 5.60761L118.606 9.61889L118.854 8.46018L121.436 14.2837L119.587 13.8888L117.688 9.513L118.415 9.66832L114.927 12.8937L113.102 12.504Z" fill="white"/>
<path d="M126.775 16.1211L130.387 8.07009L133.701 9.55321C134.414 9.87249 134.972 10.2604 135.376 10.7171C135.786 11.1771 136.033 11.6836 136.117 12.2366C136.2 12.7896 136.11 13.3613 135.845 13.9517C135.58 14.5421 135.213 14.9902 134.744 15.296C134.275 15.6018 133.732 15.7547 133.115 15.7547C132.506 15.7581 131.844 15.6002 131.131 15.2809L128.646 14.1686L129.628 13.7657L128.271 16.7906L126.775 16.1211ZM129.556 13.9267L129.213 12.9034L131.63 13.9849C132.289 14.2801 132.846 14.3635 133.3 14.2351C133.764 14.1025 134.11 13.7831 134.337 13.2771C134.568 12.7633 134.576 12.2929 134.363 11.8658C134.157 11.4422 133.724 11.0827 133.064 10.7875L130.648 9.70603L131.646 9.26862L129.556 13.9267Z" fill="white"/>
<path d="M143.15 19.0995L146.691 21.6888L145.893 22.7767L142.352 20.1874L143.15 19.0995ZM141.016 22.2241L145.035 25.1631L144.223 26.2713L138.88 22.3651L144.097 15.248L149.297 19.05L148.485 20.1583L144.608 17.3235L141.016 22.2241Z" fill="white"/>
<path d="M148.874 30.5064L155.463 24.6376L157.881 27.3458C158.402 27.9288 158.753 28.511 158.934 29.0924C159.121 29.6801 159.139 30.2433 158.989 30.782C158.839 31.3207 158.522 31.8052 158.039 32.2356C157.556 32.666 157.038 32.9249 156.485 33.0122C155.938 33.0939 155.383 33.0086 154.82 32.7563C154.269 32.5046 153.733 32.0873 153.212 31.5043L151.399 29.4731L152.441 29.5239L149.965 31.7289L148.874 30.5064ZM152.719 34.8132L153.624 31.0192L154.791 32.3263L153.894 36.1297L152.719 34.8132ZM152.309 29.6412L152.406 28.576L154.169 30.5507C154.65 31.0899 155.127 31.3908 155.6 31.4536C156.079 31.5226 156.525 31.3727 156.939 31.0038C157.36 30.6293 157.56 30.2035 157.54 29.7265C157.525 29.2557 157.277 28.7507 156.795 28.2116L155.032 26.2369L156.122 26.2457L152.309 29.6412Z" fill="white"/>
<path d="M158.484 43.1098L164.95 39.4333L163.501 36.8926L164.707 36.2071L168.415 42.7124L167.21 43.3978L165.761 40.857L159.296 44.5335L158.484 43.1098Z" fill="white"/>
<path d="M166.737 68.9002C166.671 68.2143 166.703 67.5483 166.835 66.9024C166.975 66.2557 167.182 65.7333 167.456 65.3354L168.778 65.7778C168.536 66.1557 168.348 66.6129 168.214 67.1493C168.08 67.6857 168.039 68.2257 168.092 68.7695C168.137 69.2295 168.223 69.597 168.351 69.8717C168.479 70.1464 168.633 70.3426 168.813 70.4603C169.001 70.5772 169.205 70.6252 169.422 70.6042C169.69 70.5784 169.894 70.4616 170.034 70.2539C170.183 70.0453 170.288 69.7819 170.35 69.4635C170.421 69.1526 170.481 68.805 170.528 68.4205C170.576 68.0444 170.636 67.6628 170.709 67.2759C170.79 66.8966 170.904 66.5437 171.049 66.2172C171.204 65.8983 171.423 65.6281 171.706 65.4067C171.988 65.1852 172.364 65.0519 172.832 65.0067C173.309 64.9607 173.756 65.0442 174.173 65.2573C174.6 65.4778 174.956 65.8361 175.24 66.3322C175.534 66.8358 175.719 67.4891 175.797 68.2921C175.848 68.8191 175.831 69.3484 175.748 69.8799C175.664 70.4115 175.515 70.8818 175.302 71.2908L173.985 70.8986C174.181 70.4828 174.313 70.0606 174.381 69.6318C174.458 69.2023 174.478 68.7951 174.44 68.4103C174.397 67.9586 174.307 67.5958 174.171 67.3219C174.035 67.0563 173.873 66.8651 173.684 66.7482C173.497 66.6397 173.29 66.5963 173.064 66.6181C172.796 66.6439 172.588 66.7569 172.438 66.9571C172.298 67.1648 172.196 67.4237 172.133 67.7337C172.071 68.0521 172.012 68.4039 171.957 68.7892C171.91 69.1737 171.849 69.5553 171.776 69.9338C171.704 70.3207 171.594 70.6732 171.448 70.9913C171.302 71.3178 171.088 71.5875 170.804 71.8006C170.522 72.0221 170.15 72.155 169.69 72.1994C169.222 72.2446 168.774 72.1569 168.348 71.9363C167.93 71.7233 167.575 71.365 167.281 70.8614C166.996 70.357 166.815 69.7033 166.737 68.9002Z" fill="white"/>
<path d="M166.617 82.1777C166.696 81.4931 166.881 80.8757 167.173 80.3254C167.464 79.7752 167.835 79.3102 168.285 78.9304C168.743 78.5515 169.257 78.2763 169.826 78.1048C170.404 77.9342 171.019 77.8863 171.67 77.961C172.321 78.0357 172.905 78.2211 173.421 78.5171C173.945 78.8141 174.383 79.1984 174.735 79.6702C175.095 80.1429 175.354 80.6803 175.514 81.2822C175.673 81.8842 175.713 82.5233 175.636 83.1995C175.557 83.8841 175.372 84.4974 175.081 85.0393C174.79 85.5895 174.419 86.0545 173.969 86.4343C173.52 86.8142 173.006 87.0894 172.428 87.2599C171.85 87.4305 171.235 87.4784 170.584 87.4037C169.933 87.329 169.345 87.1432 168.821 86.8462C168.297 86.5492 167.859 86.1648 167.507 85.6931C167.155 85.2213 166.9 84.6844 166.741 84.0825C166.58 83.4889 166.539 82.854 166.617 82.1777ZM164.498 84.8276C164.533 84.5187 164.605 84.2225 164.714 83.9389C164.814 83.6627 164.963 83.3922 165.163 83.1275C165.353 82.8702 165.599 82.6066 165.901 82.3366C166.194 82.0658 166.554 81.7729 166.979 81.4579L167.231 83.2379C166.895 83.4362 166.623 83.6292 166.416 83.8169C166.199 84.0119 166.037 84.2048 165.93 84.3956C165.824 84.5864 165.758 84.7904 165.733 85.0074C165.667 85.5835 165.843 86.1113 166.262 86.5907L165.274 87.2387C164.648 86.5748 164.389 85.7711 164.498 84.8276ZM168.046 82.329C167.995 82.7715 168.023 83.1892 168.13 83.5821C168.238 83.9751 168.413 84.3251 168.657 84.6322C168.909 84.9403 169.214 85.191 169.573 85.3844C169.93 85.5861 170.33 85.7124 170.773 85.7631C171.224 85.8149 171.642 85.7825 172.027 85.666C172.42 85.5588 172.771 85.3832 173.078 85.1393C173.393 84.8964 173.648 84.5957 173.841 84.2372C174.035 83.8787 174.157 83.4783 174.208 83.0358C174.259 82.5933 174.231 82.1755 174.124 81.7826C174.017 81.3896 173.837 81.0391 173.585 80.7311C173.341 80.4239 173.04 80.1695 172.683 79.9678C172.333 79.7754 171.932 79.6533 171.481 79.6016C171.039 79.5508 170.621 79.579 170.228 79.6862C169.834 79.8017 169.479 79.981 169.164 80.2239C168.857 80.4679 168.606 80.769 168.413 81.1275C168.219 81.486 168.097 81.8865 168.046 82.329Z" fill="white"/>
<path d="M163.728 95.071C164.115 93.9243 164.741 93.1331 165.607 92.6972C166.469 92.2693 167.51 92.2604 168.729 92.6705L173.448 94.2587L172.924 95.8115L168.265 94.2434C167.404 93.9539 166.717 93.9267 166.204 94.1616C165.687 94.4046 165.315 94.8645 165.086 95.5413C164.858 96.2182 164.877 96.8054 165.144 97.3031C165.41 97.8007 165.974 98.1943 166.834 98.4838L171.494 100.052L170.978 101.581L166.259 99.9926C165.04 99.5825 164.218 98.9424 163.793 98.0723C163.366 97.2102 163.344 96.2097 163.728 95.071Z" fill="white"/>
<path d="M160.765 103.029L166.327 110.942L165.503 112.329L155.877 111.254L156.753 109.78L165.34 110.899L165.006 111.463L159.902 104.481L160.765 103.029ZM161.588 105.641L162.468 106.676L160.034 110.773L158.703 110.496L161.588 105.641Z" fill="white"/>
<path d="M153.12 114.807L159.603 120.793L156.982 123.624C156.331 124.327 155.625 124.818 154.862 125.098C154.099 125.377 153.34 125.443 152.585 125.294C151.829 125.145 151.124 124.769 150.469 124.164C149.821 123.566 149.39 122.893 149.176 122.147C148.969 121.406 148.975 120.645 149.194 119.864C149.414 119.082 149.849 118.34 150.5 117.637L153.12 114.807ZM153.026 116.95L151.57 118.522C151.119 119.01 150.823 119.515 150.683 120.037C150.537 120.566 150.542 121.08 150.698 121.579C150.849 122.084 151.147 122.542 151.591 122.952C152.042 123.369 152.522 123.629 153.032 123.734C153.543 123.851 154.056 123.816 154.572 123.629C155.083 123.449 155.564 123.115 156.015 122.628L157.471 121.055L153.026 116.95Z" fill="white"/>
<path d="M140.06 124.394L141.069 127.092L140.356 126.453C140.596 126.283 140.85 126.213 141.116 126.241C141.381 126.281 141.603 126.428 141.782 126.682C141.966 126.943 142.033 127.204 141.981 127.467C141.928 127.741 141.784 127.96 141.55 128.124C141.31 128.294 141.055 128.355 140.785 128.308C140.516 128.262 140.292 128.111 140.112 127.857C140.064 127.789 140.017 127.708 139.973 127.616C139.933 127.531 139.895 127.425 139.856 127.297C139.811 127.175 139.767 127.011 139.724 126.804L139.225 124.982L140.06 124.394Z" fill="white"/>
<path d="M118.633 141.581L114.327 142.42L114.069 141.096L118.375 140.258L118.633 141.581ZM117.785 137.894L112.897 138.846L112.634 137.497L119.13 136.232L120.821 144.893L114.498 146.124L114.235 144.776L118.949 143.857L117.785 137.894Z" fill="white"/>
<path d="M105.525 138.012L105.366 146.835L103.727 146.806L103.862 139.369L99.2485 139.286L99.2736 137.9L105.525 138.012Z" fill="white"/>
<path d="M90.582 136.526L88.5791 145.12L86.9829 144.749L88.9858 136.155L90.582 136.526Z" fill="white"/>
<path d="M77.9856 132.343L74.8188 139.073L77.4663 140.316L76.8759 141.571L70.0975 138.389L70.6879 137.134L73.3353 138.377L76.5021 131.647L77.9856 132.343Z" fill="white"/>
<path d="M64.0002 130.161L60.5062 127.508L61.3232 126.435L64.8171 129.088L64.0002 130.161ZM66.1903 127.075L62.2244 124.064L63.0566 122.971L68.3277 126.973L62.9833 133.995L57.8528 130.099L58.685 129.006L62.5103 131.91L66.1903 127.075Z" fill="white"/>
<path d="M48.4854 104.501C48.8078 105.091 49.012 105.693 49.0982 106.306C49.173 106.916 49.136 107.506 48.9873 108.075C48.8272 108.641 48.56 109.16 48.1858 109.632C47.8116 110.104 47.3367 110.496 46.7611 110.81C46.1856 111.124 45.5978 111.31 44.998 111.369C44.3981 111.428 43.8183 111.366 43.2586 111.183C42.6915 111.004 42.1751 110.716 41.7092 110.319C41.236 109.926 40.8361 109.431 40.5098 108.833C40.1632 108.199 39.9576 107.56 39.8929 106.916C39.8208 106.275 39.9 105.658 40.1306 105.063L41.5127 105.516C41.3633 105.961 41.3095 106.397 41.3513 106.824C41.3857 107.255 41.5137 107.674 41.7354 108.079C41.957 108.485 42.2269 108.821 42.5451 109.088C42.8592 109.348 43.2065 109.536 43.5871 109.654C43.9635 109.765 44.3561 109.8 44.7647 109.759C45.1693 109.711 45.5709 109.578 45.9693 109.361C46.3678 109.144 46.6968 108.878 46.9564 108.565C47.2119 108.244 47.3949 107.895 47.5054 107.519C47.612 107.135 47.641 106.741 47.5925 106.337C47.5399 105.926 47.4029 105.517 47.1812 105.111C46.9596 104.706 46.6803 104.37 46.3434 104.104C45.999 103.841 45.5953 103.655 45.1323 103.543L45.5101 102.131C46.1281 102.264 46.6909 102.531 47.1983 102.934C47.7058 103.337 48.1348 103.859 48.4854 104.501Z" fill="white"/>
<path d="M43.7262 92.8862C43.9227 93.5467 43.9949 94.1871 43.9428 94.8075C43.8906 95.4279 43.7323 96.0008 43.4679 96.5264C43.1953 97.0544 42.8308 97.5089 42.3742 97.8899C41.9096 98.2733 41.3631 98.5582 40.7346 98.7447C40.1062 98.9313 39.4966 98.9895 38.9058 98.9194C38.307 98.8517 37.7531 98.6698 37.2441 98.3738C36.7271 98.0802 36.2771 97.6878 35.8942 97.1965C35.5113 96.7053 35.2228 96.1335 35.0286 95.481C34.8321 94.8205 34.7611 94.1841 34.8156 93.5718C34.8678 92.9514 35.0301 92.3773 35.3026 91.8493C35.5671 91.3237 35.9317 90.8692 36.3963 90.4858C36.8529 90.1048 37.3954 89.8211 38.0238 89.6346C38.6522 89.448 39.2658 89.3886 39.8647 89.4563C40.4635 89.524 41.0174 89.7059 41.5264 90.0019C42.0353 90.2979 42.4813 90.6915 42.8642 91.1828C43.2447 91.6659 43.532 92.2337 43.7262 92.8862ZM42.3521 93.3072C42.2251 92.8803 42.0351 92.5071 41.7822 92.1877C41.5293 91.8683 41.2304 91.6151 40.8855 91.4282C40.5324 91.2437 40.1571 91.1316 39.7595 91.0918C39.3514 91.0464 38.9298 91.0882 38.4948 91.2174C38.0597 91.3465 37.6877 91.5402 37.3787 91.7985C37.0593 92.0511 36.8063 92.3497 36.6195 92.6945C36.4247 93.0416 36.3087 93.4179 36.2715 93.8234C36.2343 94.2289 36.2793 94.6452 36.4063 95.0721C36.5334 95.499 36.7233 95.8722 36.9762 96.1916C37.2267 96.503 37.5296 96.7549 37.885 96.9475C38.23 97.1344 38.6065 97.2506 39.0146 97.296C39.4123 97.3358 39.8286 97.2911 40.2637 97.1619C40.6907 97.0352 41.0639 96.8455 41.3833 96.5929C41.7003 96.3323 41.9562 96.0284 42.151 95.6812C42.3378 95.3365 42.4498 94.9614 42.4869 94.5559C42.5241 94.1503 42.4791 93.7341 42.3521 93.3072Z" fill="white"/>
<path d="M41.5655 84.7331L32.7681 85.422L32.6626 84.0773L38.7828 79.7288L38.838 80.4325L32.119 77.1526L32.0135 75.8079L40.8098 75.1065L40.9311 76.6523L34.5604 77.1638L34.5347 76.837L40.1536 79.6341L40.2108 80.363L35.101 84.0507L35.0714 83.6737L41.4431 83.1748L41.5655 84.7331Z" fill="white"/>
<path d="M40.9072 71.463L32.16 70.2995L32.3383 68.9624L39.2336 65.9882L39.1403 66.688L33.2564 62.0774L33.4347 60.7404L42.1835 61.8915L41.9786 63.4284L35.6415 62.5982L35.6848 62.2733L40.594 66.1819L40.4974 66.9066L34.7284 69.4457L34.7783 69.0708L41.1138 69.9136L40.9072 71.463Z" fill="white"/>
<path d="M39.2973 53.503L40.7745 49.3722L42.045 49.8254L40.5678 53.9562L39.2973 53.503ZM42.9018 54.6549L44.5785 49.9663L45.8726 50.428L43.6441 56.6597L35.3329 53.6948L37.502 47.6293L38.7961 48.091L37.1789 52.6134L42.9018 54.6549Z" fill="white"/>
<path d="M48.6198 44.7743L41.1114 40.1384L43.0222 37.0514C43.4335 36.3868 43.8924 35.885 44.3989 35.5458C44.9097 35.1995 45.445 35.0213 46.0047 35.0113C46.5644 35.0013 47.1195 35.1663 47.6701 35.5062C48.2207 35.8462 48.6167 36.2684 48.8579 36.7729C49.0919 37.273 49.1681 37.8287 49.0862 38.4399C49.0017 39.0396 48.7538 39.6717 48.3424 40.3363L46.9093 42.6515L46.6613 41.6391L49.4823 43.3809L48.6198 44.7743ZM51.6584 39.8651L47.7597 40.0801L48.6819 38.5902L52.5873 38.3644L51.6584 39.8651ZM46.8115 41.7318L45.7616 41.9429L47.1549 39.6919C47.5353 39.0774 47.6883 38.5348 47.6139 38.0642C47.5439 37.5864 47.273 37.2018 46.801 36.9104C46.3219 36.6146 45.8563 36.5444 45.4043 36.6999C44.9567 36.8482 44.5426 37.2297 44.1623 37.8442L42.769 40.0952L42.4673 39.0496L46.8115 41.7318Z" fill="white"/>
<path d="M59.1161 30.981C58.6505 31.466 58.138 31.8421 57.5786 32.1093C57.019 32.3646 56.4451 32.5074 55.8569 32.5376C55.2685 32.556 54.6925 32.4582 54.1289 32.2444C53.5654 32.0305 53.0468 31.6969 52.5734 31.2435C52.0999 30.7902 51.7444 30.2868 51.5067 29.7334C51.269 29.1801 51.1529 28.6093 51.1584 28.0211C51.1577 27.4271 51.2764 26.8484 51.5143 26.285C51.7462 25.7158 52.0978 25.1857 52.5692 24.6946C53.0697 24.1732 53.6176 23.7844 54.213 23.5283C54.8022 23.2664 55.4154 23.1555 56.0527 23.1955L56.0387 24.6482C55.5686 24.6403 55.1362 24.7207 54.7412 24.8894C54.3402 25.0523 53.9797 25.3005 53.6596 25.6339C53.3395 25.9674 53.1002 26.3259 52.9418 26.7094C52.7891 27.0868 52.714 27.4745 52.7165 27.8724C52.7247 28.2643 52.8101 28.6486 52.9727 29.0254C53.1411 29.3961 53.3892 29.7383 53.717 30.0522C54.0448 30.3661 54.3976 30.5992 54.7755 30.7516C55.1592 30.898 55.5473 30.967 55.9396 30.9588C56.3378 30.9444 56.7225 30.8532 57.0937 30.685C57.4706 30.5107 57.8192 30.2568 58.1392 29.9234C58.4593 29.5899 58.6954 29.2226 58.8476 28.8214C58.9936 28.4144 59.0498 27.9737 59.016 27.4992L60.4777 27.4327C60.5385 28.0611 60.4534 28.6777 60.2223 29.2825C59.9912 29.8874 59.6224 30.4535 59.1161 30.981Z" fill="white"/>
<path d="M64.5197 19.4379L68.1521 16.9781L68.9097 18.0941L65.2773 20.5539L64.5197 19.4379ZM66.7481 22.4961L70.8711 19.7041L71.6429 20.841L66.163 24.5519L61.2067 17.251L66.5405 13.6391L67.3123 14.7759L63.3354 17.469L66.7481 22.4961Z" fill="white"/>
<path d="M81.6985 13.6238L81.2054 12.4091L84.4186 11.108L84.9117 12.3227L81.6985 13.6238Z" fill="white"/>
<path d="M22.656 208.3C22.96 208.684 23.112 209.188 23.112 209.812C23.112 210.676 22.792 211.34 22.152 211.804C21.512 212.252 20.688 212.476 19.68 212.476C19.104 212.476 18.376 212.412 17.496 212.284C15.768 212.012 14.64 211.876 14.112 211.876C13.584 211.876 13.216 211.892 13.008 211.924C12.8 211.94 12.528 211.964 12.192 211.996L15.144 196.156H25.488C25.488 197.132 25.248 197.876 24.768 198.388C24.304 198.9 23.608 199.156 22.68 199.156C21.752 199.156 20.816 198.94 19.872 198.508L19.128 202.708H23.4C23.4 203.556 23.192 204.22 22.776 204.7C22.36 205.164 21.8 205.396 21.096 205.396C20.408 205.396 19.848 205.316 19.416 205.156C18.984 204.996 18.744 204.892 18.696 204.844L17.832 209.38C18.216 209.428 18.768 209.452 19.488 209.452C20.72 209.452 21.776 209.068 22.656 208.3ZM31.0581 210.676C30.5621 211.876 29.5221 212.476 27.9381 212.476C27.1381 212.476 26.4821 212.196 25.9701 211.636C25.5541 211.172 25.3461 210.676 25.3461 210.148C25.3461 208.948 25.6261 207.036 26.1861 204.412L27.9381 195.196L32.8101 194.716L30.4821 206.86C30.2101 208.044 30.0741 208.844 30.0741 209.26C30.0741 210.172 30.4021 210.644 31.0581 210.676ZM38.8633 210.676C38.3673 211.876 37.3273 212.476 35.7433 212.476C34.9273 212.476 34.2633 212.196 33.7513 211.636C33.3193 211.14 33.1033 210.644 33.1033 210.148C33.1033 208.852 33.3993 206.94 33.9913 204.412L34.8793 199.756L39.7513 199.276L38.2873 206.86C38.0153 208.044 37.8793 208.844 37.8793 209.26C37.8793 210.172 38.2073 210.644 38.8633 210.676ZM35.3113 196.42C35.3113 195.796 35.5673 195.316 36.0793 194.98C36.6073 194.644 37.2473 194.476 37.9993 194.476C38.7513 194.476 39.3513 194.644 39.7993 194.98C40.2633 195.316 40.4953 195.796 40.4953 196.42C40.4953 197.044 40.2393 197.516 39.7273 197.836C39.2313 198.156 38.6073 198.316 37.8553 198.316C37.1033 198.316 36.4873 198.156 36.0073 197.836C35.5433 197.516 35.3113 197.044 35.3113 196.42ZM41.292 209.596C41.292 209.164 41.404 208.404 41.628 207.316L42.9 200.836H41.484L41.58 200.116C43.5 199.54 45.388 198.548 47.244 197.14H48.396L47.82 199.756H49.692L49.476 200.836H47.628L46.404 207.316C46.196 208.308 46.092 208.972 46.092 209.308C46.092 210.076 46.428 210.54 47.1 210.7C46.94 211.244 46.572 211.676 45.996 211.996C45.42 212.316 44.724 212.476 43.908 212.476C43.092 212.476 42.452 212.22 41.988 211.708C41.524 211.196 41.292 210.492 41.292 209.596ZM59.2061 207.94C59.6061 208.212 59.8061 208.652 59.8061 209.26C59.8061 209.852 59.6541 210.34 59.3501 210.724C59.0461 211.108 58.6461 211.428 58.1501 211.684C57.1261 212.212 56.0621 212.476 54.9581 212.476C53.8541 212.476 52.9741 212.356 52.3181 212.116C51.6781 211.876 51.1421 211.532 50.7101 211.084C49.8621 210.236 49.4381 209.036 49.4381 207.484C49.4381 205.068 50.0941 203.124 51.4061 201.652C52.8141 200.068 54.7421 199.276 57.1901 199.276C58.7101 199.276 59.8461 199.596 60.5981 200.236C61.1581 200.716 61.4381 201.348 61.4381 202.132C61.4381 204.948 59.0061 206.356 54.1421 206.356C54.0781 206.772 54.0461 207.156 54.0461 207.508C54.0461 208.244 54.2061 208.756 54.5261 209.044C54.8621 209.316 55.3341 209.452 55.9421 209.452C56.5501 209.452 57.1741 209.316 57.8141 209.044C58.4701 208.756 58.9341 208.388 59.2061 207.94ZM54.3101 205.324C55.4461 205.324 56.3421 204.972 56.9981 204.268C57.6541 203.596 57.9821 202.724 57.9821 201.652C57.9821 201.284 57.9101 201.004 57.7661 200.812C57.6381 200.604 57.4381 200.5 57.1661 200.5C56.8941 200.5 56.6381 200.556 56.3981 200.668C56.1741 200.764 55.9421 200.988 55.7021 201.34C55.1101 202.14 54.6461 203.468 54.3101 205.324ZM63.1476 208.108C62.6356 207.74 62.3796 207.204 62.3796 206.5C62.3796 206.116 62.4756 205.772 62.6676 205.468C62.8596 205.148 63.1476 204.964 63.5316 204.916H68.2596C68.7876 204.916 69.1316 204.756 69.2916 204.436C69.5476 204.58 69.7316 204.804 69.8436 205.108C69.9556 205.412 70.0116 205.724 70.0116 206.044C70.0116 206.364 69.8836 206.684 69.6276 207.004C69.3876 207.308 69.0836 207.476 68.7156 207.508H64.3236C63.9876 207.508 63.7396 207.564 63.5796 207.676C63.4196 207.772 63.2756 207.916 63.1476 208.108ZM84.186 207.028C84.602 207.332 84.81 207.812 84.81 208.468C84.81 209.108 84.666 209.66 84.378 210.124C84.106 210.572 83.698 210.972 83.154 211.324C81.986 212.076 80.378 212.452 78.33 212.452C76.298 212.452 74.722 211.924 73.602 210.868C72.498 209.796 71.946 208.316 71.946 206.428C71.946 203.756 72.642 201.404 74.034 199.372C75.09 197.868 76.562 196.796 78.45 196.156C79.426 195.836 80.394 195.676 81.354 195.676C82.314 195.676 83.09 195.74 83.682 195.868C84.274 195.996 84.794 196.188 85.242 196.444C86.218 197.004 86.706 197.732 86.706 198.628C86.706 199.444 86.322 200.156 85.554 200.764C84.85 201.308 84.21 201.58 83.634 201.58C83.058 201.58 82.65 201.54 82.41 201.46C82.474 200.884 82.506 200.412 82.506 200.044C82.506 199.66 82.498 199.332 82.482 199.06C82.466 198.788 82.418 198.524 82.338 198.268C82.178 197.676 81.85 197.38 81.354 197.38C80.874 197.38 80.386 197.612 79.89 198.076C79.41 198.524 78.962 199.132 78.546 199.9C77.602 201.644 77.13 203.548 77.13 205.612C77.13 206.604 77.41 207.388 77.97 207.964C78.53 208.524 79.41 208.804 80.61 208.804C81.506 208.804 82.378 208.508 83.226 207.916C83.594 207.66 83.914 207.364 84.186 207.028ZM92.0306 212.476C88.5106 212.476 86.7506 210.82 86.7506 207.508C86.7506 205.156 87.3986 203.22 88.6946 201.7C90.0706 200.084 91.9506 199.276 94.3346 199.276C96.0626 199.276 97.3666 199.676 98.2466 200.476C99.1266 201.276 99.5666 202.516 99.5666 204.196C99.5666 206.756 98.8786 208.78 97.5026 210.268C96.1586 211.74 94.3346 212.476 92.0306 212.476ZM92.6546 202.036C92.4626 202.468 92.2866 203.012 92.1266 203.668C91.9826 204.308 91.8146 205.14 91.6226 206.164C91.4306 207.188 91.3346 208.332 91.3346 209.596C91.3346 210.012 91.3986 210.356 91.5266 210.628C91.6706 210.9 91.9266 211.036 92.2946 211.036C92.6626 211.036 92.9586 210.948 93.1826 210.772C93.4226 210.596 93.6306 210.3 93.8066 209.884C94.1266 209.148 94.4146 208.1 94.6706 206.74C94.9266 205.364 95.0626 204.38 95.0786 203.788C95.1106 203.196 95.1266 202.684 95.1266 202.252C95.1266 201.804 95.0626 201.436 94.9346 201.148C94.8066 200.86 94.5586 200.716 94.1906 200.716C93.8386 200.716 93.5426 200.828 93.3026 201.052C93.0626 201.276 92.8466 201.604 92.6546 202.036ZM118.258 212.476C116.322 212.476 115.354 211.724 115.354 210.22C115.354 209.564 115.49 208.604 115.762 207.34C116.05 206.06 116.242 205.164 116.338 204.652C116.562 203.484 116.674 202.716 116.674 202.348C116.674 201.532 116.37 201.124 115.762 201.124C115.362 201.124 114.97 201.404 114.586 201.964C114.202 202.508 113.922 203.332 113.746 204.436L112.258 211.996L107.578 212.476L108.874 205.948C109.018 205.228 109.154 204.46 109.282 203.644C109.41 202.828 109.474 202.356 109.474 202.228C109.474 201.492 109.202 201.124 108.658 201.124C108.29 201.124 107.906 201.396 107.506 201.94C107.106 202.484 106.794 203.316 106.57 204.436L105.106 211.996L100.378 212.476L102.898 199.756L106.81 199.276L106.402 201.7C106.818 200.836 107.41 200.22 108.178 199.852C108.946 199.468 109.93 199.276 111.13 199.276C111.818 199.276 112.386 199.444 112.834 199.78C113.282 200.116 113.578 200.556 113.722 201.1C113.994 200.54 114.474 200.1 115.162 199.78C115.866 199.444 116.642 199.276 117.49 199.276C118.354 199.276 118.994 199.372 119.41 199.564C119.842 199.74 120.186 199.98 120.442 200.284C120.874 200.844 121.09 201.636 121.09 202.66C121.09 203.668 120.874 205.22 120.442 207.316C120.218 208.34 120.106 209.044 120.106 209.428C120.106 209.796 120.21 210.092 120.418 210.316C120.642 210.54 120.914 210.668 121.234 210.7C121.074 211.244 120.714 211.676 120.154 211.996C119.61 212.316 118.978 212.476 118.258 212.476ZM140.36 212.476C138.424 212.476 137.456 211.724 137.456 210.22C137.456 209.564 137.592 208.604 137.864 207.34C138.152 206.06 138.344 205.164 138.44 204.652C138.664 203.484 138.776 202.716 138.776 202.348C138.776 201.532 138.472 201.124 137.864 201.124C137.464 201.124 137.072 201.404 136.688 201.964C136.304 202.508 136.024 203.332 135.848 204.436L134.36 211.996L129.68 212.476L130.976 205.948C131.12 205.228 131.256 204.46 131.384 203.644C131.512 202.828 131.576 202.356 131.576 202.228C131.576 201.492 131.304 201.124 130.76 201.124C130.392 201.124 130.008 201.396 129.608 201.94C129.208 202.484 128.896 203.316 128.672 204.436L127.208 211.996L122.48 212.476L125 199.756L128.912 199.276L128.504 201.7C128.92 200.836 129.512 200.22 130.28 199.852C131.048 199.468 132.032 199.276 133.232 199.276C133.92 199.276 134.488 199.444 134.936 199.78C135.384 200.116 135.68 200.556 135.824 201.1C136.096 200.54 136.576 200.1 137.264 199.78C137.968 199.444 138.744 199.276 139.592 199.276C140.456 199.276 141.096 199.372 141.512 199.564C141.944 199.74 142.288 199.98 142.544 200.284C142.976 200.844 143.192 201.636 143.192 202.66C143.192 203.668 142.976 205.22 142.544 207.316C142.32 208.34 142.208 209.044 142.208 209.428C142.208 209.796 142.312 210.092 142.52 210.316C142.744 210.54 143.016 210.668 143.336 210.7C143.176 211.244 142.816 211.676 142.256 211.996C141.712 212.316 141.08 212.476 140.36 212.476ZM154.901 207.94C155.301 208.212 155.501 208.652 155.501 209.26C155.501 209.852 155.349 210.34 155.045 210.724C154.741 211.108 154.341 211.428 153.845 211.684C152.821 212.212 151.757 212.476 150.653 212.476C149.549 212.476 148.669 212.356 148.013 212.116C147.373 211.876 146.837 211.532 146.405 211.084C145.557 210.236 145.133 209.036 145.133 207.484C145.133 205.068 145.789 203.124 147.101 201.652C148.509 200.068 150.437 199.276 152.885 199.276C154.405 199.276 155.541 199.596 156.293 200.236C156.853 200.716 157.133 201.348 157.133 202.132C157.133 204.948 154.701 206.356 149.837 206.356C149.773 206.772 149.741 207.156 149.741 207.508C149.741 208.244 149.901 208.756 150.221 209.044C150.557 209.316 151.029 209.452 151.637 209.452C152.245 209.452 152.869 209.316 153.509 209.044C154.165 208.756 154.629 208.388 154.901 207.94ZM150.005 205.324C151.141 205.324 152.037 204.972 152.693 204.268C153.349 203.596 153.677 202.724 153.677 201.652C153.677 201.284 153.605 201.004 153.461 200.812C153.333 200.604 153.133 200.5 152.861 200.5C152.589 200.5 152.333 200.556 152.093 200.668C151.869 200.764 151.637 200.988 151.397 201.34C150.805 202.14 150.341 203.468 150.005 205.324ZM165.467 205.252C166.043 204.228 166.331 203.196 166.331 202.156C166.331 201.468 166.083 201.124 165.587 201.124C165.203 201.124 164.811 201.452 164.411 202.108C163.995 202.764 163.723 203.516 163.595 204.364L162.347 211.996L157.379 212.476L159.827 199.756L163.787 199.276L163.355 201.7C164.139 200.084 165.411 199.276 167.171 199.276C168.099 199.276 168.811 199.516 169.307 199.996C169.819 200.476 170.075 201.212 170.075 202.204C170.075 203.18 169.747 203.98 169.091 204.604C168.451 205.228 167.579 205.54 166.475 205.54C165.995 205.54 165.659 205.444 165.467 205.252ZM182.255 202.012C182.255 202.684 181.975 203.228 181.415 203.644C180.855 204.06 180.119 204.268 179.207 204.268C178.823 204.268 178.519 204.212 178.295 204.1C178.471 203.684 178.583 203.22 178.631 202.708C178.695 202.18 178.727 201.844 178.727 201.7C178.727 201.028 178.495 200.692 178.031 200.692C177.711 200.692 177.367 200.892 176.999 201.292C176.647 201.692 176.319 202.204 176.015 202.828C175.343 204.268 175.007 205.716 175.007 207.172C175.007 207.972 175.159 208.556 175.463 208.924C175.767 209.276 176.255 209.452 176.927 209.452C177.855 209.452 178.687 209.068 179.423 208.3C179.631 208.06 179.791 207.804 179.903 207.532C180.511 207.852 180.815 208.452 180.815 209.332C180.815 210.228 180.319 210.972 179.327 211.564C178.303 212.172 176.975 212.476 175.343 212.476C172.095 212.476 170.471 210.756 170.471 207.316C170.471 204.804 171.183 202.828 172.607 201.388C173.983 199.98 175.935 199.276 178.463 199.276C180.991 199.276 182.255 200.188 182.255 202.012ZM192.612 207.94C193.012 208.212 193.212 208.652 193.212 209.26C193.212 209.852 193.06 210.34 192.756 210.724C192.452 211.108 192.052 211.428 191.556 211.684C190.532 212.212 189.468 212.476 188.364 212.476C187.26 212.476 186.38 212.356 185.724 212.116C185.084 211.876 184.548 211.532 184.116 211.084C183.268 210.236 182.844 209.036 182.844 207.484C182.844 205.068 183.5 203.124 184.812 201.652C186.22 200.068 188.148 199.276 190.596 199.276C192.116 199.276 193.252 199.596 194.004 200.236C194.564 200.716 194.844 201.348 194.844 202.132C194.844 204.948 192.412 206.356 187.548 206.356C187.484 206.772 187.452 207.156 187.452 207.508C187.452 208.244 187.612 208.756 187.932 209.044C188.268 209.316 188.74 209.452 189.348 209.452C189.956 209.452 190.58 209.316 191.22 209.044C191.876 208.756 192.34 208.388 192.612 207.94ZM187.716 205.324C188.852 205.324 189.748 204.972 190.404 204.268C191.06 203.596 191.388 202.724 191.388 201.652C191.388 201.284 191.316 201.004 191.172 200.812C191.044 200.604 190.844 200.5 190.572 200.5C190.3 200.5 190.044 200.556 189.804 200.668C189.58 200.764 189.348 200.988 189.108 201.34C188.516 202.14 188.052 203.468 187.716 205.324Z" fill="white"/>
<defs>
<filter id="filter0_d_15535_28374" x="80.4114" y="52.8833" width="48.4545" height="54.956" filterUnits="userSpaceOnUse" color-interpolation-filters="sRGB">
<feFlood flood-opacity="0" result="BackgroundImageFix"/>
<feColorMatrix in="SourceAlpha" type="matrix" values="0 0 0 0 0 0 0 0 0 0 0 0 0 0 0 0 0 0 127 0" result="hardAlpha"/>
<feOffset dy="4.72727"/>
<feGaussianBlur stdDeviation="2.36364"/>
<feComposite in2="hardAlpha" operator="out"/>
<feColorMatrix type="matrix" values="0 0 0 0 0 0 0 0 0 0 0 0 0 0 0 0 0 0 0.25 0"/>
<feBlend mode="normal" in2="BackgroundImageFix" result="effect1_dropShadow_15535_28374"/>
<feBlend mode="normal" in="SourceGraphic" in2="effect1_dropShadow_15535_28374" result="shape"/>
</filter>
<linearGradient id="paint0_linear_15535_28374" x1="53.1414" y1="34.9908" x2="143.653" y2="119.972" gradientUnits="userSpaceOnUse">
<stop stop-color="#01914D"/>
<stop offset="1" stop-color="#0CE47F"/>
</linearGradient>
<linearGradient id="paint1_linear_15535_28374" x1="83.859" y1="56.5634" x2="126.09" y2="90.5481" gradientUnits="userSpaceOnUse">
<stop stop-color="#01914D"/>
<stop offset="1" stop-color="#0CE47F"/>
</linearGradient>
<clipPath id="clip0_15535_28374">
<rect width="52.0002" height="51.9998" fill="white" transform="translate(78.6377 49.6333)"/>
</clipPath>
</defs>
</svg>
