<svg width="50" height="50" viewBox="0 0 50 50" fill="none" xmlns="http://www.w3.org/2000/svg">
<g opacity="0.9" filter="url(#filter0_d_15480_56308)">
<rect x="10" y="7" width="30" height="30" rx="15" fill="url(#paint0_linear_15480_56308)"/>
<g clip-path="url(#clip0_15480_56308)">
<path d="M28.75 15.5049C29.8812 16.1581 30.8222 17.0953 31.4799 18.2239C32.1375 19.3525 32.489 20.6332 32.4996 21.9394C32.5101 23.2456 32.1794 24.5319 31.54 25.6709C30.9007 26.81 29.9749 27.7623 28.8544 28.4337C27.7339 29.105 26.4575 29.472 25.1516 29.4985C23.8456 29.5249 22.5554 29.2098 21.4087 28.5844C20.2619 27.9589 19.2984 27.0448 18.6135 25.9326C17.9286 24.8203 17.5461 23.5485 17.5038 22.2429L17.5 21.9999L17.5038 21.7569C17.5458 20.4617 17.9227 19.1994 18.5977 18.0932C19.2728 16.9869 20.223 16.0745 21.3557 15.4448C22.4883 14.8152 23.7649 14.4897 25.0608 14.5002C26.3566 14.5108 27.6277 14.8569 28.75 15.5049ZM27.4 23.7144C27.258 23.5752 27.0665 23.4981 26.8676 23.5001C26.6687 23.502 26.4787 23.5829 26.3395 23.7249C26.1649 23.9032 25.9565 24.0448 25.7265 24.1414C25.4965 24.2381 25.2495 24.2879 25 24.2879C24.7505 24.2879 24.5035 24.2381 24.2735 24.1414C24.0435 24.0448 23.8351 23.9032 23.6605 23.7249C23.5206 23.5862 23.3316 23.5081 23.1346 23.5076C22.9375 23.507 22.7482 23.5841 22.6074 23.722C22.4667 23.86 22.386 24.0478 22.3826 24.2448C22.3793 24.4418 22.4536 24.6322 22.5895 24.7749C22.9037 25.0956 23.2788 25.3503 23.6927 25.5242C24.1066 25.6981 24.551 25.7877 25 25.7877C25.449 25.7877 25.8934 25.6981 26.3073 25.5242C26.7212 25.3503 27.0963 25.0956 27.4105 24.7749C27.5497 24.6329 27.6268 24.4414 27.6249 24.2425C27.6229 24.0436 27.542 23.8537 27.4 23.7144ZM22.7575 19.7499L22.6623 19.7552C22.4724 19.7777 22.2984 19.872 22.1757 20.0185C22.053 20.1651 21.9909 20.353 22.0021 20.5439C22.0133 20.7347 22.097 20.9141 22.236 21.0453C22.375 21.1765 22.5588 21.2497 22.75 21.2499L22.8453 21.2447C23.0351 21.2221 23.2091 21.1279 23.3318 20.9813C23.4545 20.8347 23.5166 20.6468 23.5054 20.456C23.4942 20.2651 23.4105 20.0858 23.2715 19.9546C23.1325 19.8233 22.9487 19.7501 22.7575 19.7499ZM27.2575 19.7499L27.1623 19.7552C26.9724 19.7777 26.7984 19.872 26.6757 20.0185C26.553 20.1651 26.4909 20.353 26.5021 20.5439C26.5133 20.7347 26.597 20.9141 26.736 21.0453C26.875 21.1765 27.0588 21.2497 27.25 21.2499L27.3453 21.2447C27.5351 21.2221 27.7091 21.1279 27.8318 20.9813C27.9545 20.8347 28.0166 20.6468 28.0054 20.456C27.9942 20.2651 27.9105 20.0858 27.7715 19.9546C27.6325 19.8233 27.4487 19.7501 27.2575 19.7499Z" fill="white"/>
</g>
</g>
<defs>
<filter id="filter0_d_15480_56308" x="0.25" y="0.25" width="49.5" height="49.5" filterUnits="userSpaceOnUse" color-interpolation-filters="sRGB">
<feFlood flood-opacity="0" result="BackgroundImageFix"/>
<feColorMatrix in="SourceAlpha" type="matrix" values="0 0 0 0 0 0 0 0 0 0 0 0 0 0 0 0 0 0 127 0" result="hardAlpha"/>
<feOffset dy="3"/>
<feGaussianBlur stdDeviation="4.875"/>
<feComposite in2="hardAlpha" operator="out"/>
<feColorMatrix type="matrix" values="0 0 0 0 1 0 0 0 0 0 0 0 0 0 0 0 0 0 0.33 0"/>
<feBlend mode="normal" in2="BackgroundImageFix" result="effect1_dropShadow_15480_56308"/>
<feBlend mode="normal" in="SourceGraphic" in2="effect1_dropShadow_15480_56308" result="shape"/>
</filter>
<linearGradient id="paint0_linear_15480_56308" x1="25" y1="7" x2="25" y2="37" gradientUnits="userSpaceOnUse">
<stop stop-color="#DB8300"/>
<stop offset="1" stop-color="#FEB242"/>
</linearGradient>
<clipPath id="clip0_15480_56308">
<rect width="18" height="18" fill="white" transform="translate(16 13)"/>
</clipPath>
</defs>
</svg>
