<svg width="155" height="168" viewBox="0 0 155 168" fill="none" xmlns="http://www.w3.org/2000/svg">
<path fill-rule="evenodd" clip-rule="evenodd" d="M96.487 53.6311C96.4696 53.5727 96.4546 53.5129 96.4411 53.4555C96.2774 52.6691 96.1548 51.5131 95.9428 50.1739C95.4249 46.8809 94.3676 42.552 91.1007 39.6456C88.9063 37.6925 85.7162 36.3599 80.9928 36.4345C78.8026 36.4723 76.9629 37.5181 75.4741 39.0759C73.355 41.2879 71.955 44.5365 71.226 47.1106C70.9348 48.1433 70.7371 50.2704 70.4793 51.7112C56.26 24.1216 12.5635 27.5988 6.54868 59.9346C6.47679 60.3187 6.73178 60.6869 7.1134 60.7602C7.49605 60.8296 7.86574 60.5771 7.93762 60.193C13.7711 28.8428 56.5581 25.8416 69.6795 53.2756C69.9197 53.7764 70.2275 53.9478 70.4292 53.9977C70.7246 54.0686 71.0247 54.0063 71.2866 53.7083C71.4808 53.4853 71.6965 52.9039 71.8406 52.1193C72.1017 50.7125 72.2914 48.5379 72.5857 47.4936C73.2582 45.1153 74.534 42.0982 76.4923 40.054C77.7191 38.7715 79.2161 37.8779 81.0155 37.8471C85.2823 37.7783 88.1797 38.9373 90.1641 40.7017C93.1636 43.3711 94.0709 47.3724 94.5497 50.3943C94.8022 52.007 94.9379 53.3608 95.1577 54.154C95.3048 54.6856 95.5253 55.0281 95.7483 55.1995C95.8636 55.2863 96.132 55.4348 96.5154 55.2852C96.8877 55.1388 98.3257 54.0638 98.5836 53.9116C105.653 49.7746 113.232 52.1817 118.429 58.0875C127.139 67.985 125.586 77.7555 119.262 82.506C113.733 86.6607 104.705 86.9202 95.9332 80.2138C95.6785 79.9759 95.4222 79.7356 95.1685 79.4939C94.3094 78.6784 92.0328 76.5998 91.6847 76.3473C91.2002 75.9941 90.7963 76.3285 90.7387 76.3813C90.6022 76.5123 90.4287 76.7429 90.5551 77.1202C90.5662 77.1562 90.649 77.3335 90.9109 77.6064C92.2675 79.0124 93.6449 80.2398 95.0276 81.3011C96.3635 82.5525 97.7074 83.7897 98.985 85.1041C104.224 90.4998 109.236 96.2876 112.294 103.229C115.786 111.148 117.364 122.944 114.88 132.107C113.663 136.594 111.473 140.446 108.007 142.845C104.544 145.245 99.8226 146.17 93.5887 144.889C93.2067 144.809 92.8342 145.057 92.7546 145.439C92.675 145.821 92.9226 146.193 93.3046 146.273C100.011 147.65 105.084 146.588 108.81 144.006C112.538 141.426 114.933 137.303 116.241 132.476C118.807 123.014 117.192 110.835 113.587 102.659C110.564 95.8015 105.696 90.038 100.542 84.6815C108.093 88.2043 115.336 87.2226 120.11 83.6348C126.966 78.4853 128.93 67.8839 119.488 57.1531C113.833 50.7254 105.567 48.1899 97.87 52.6924C97.7197 52.7825 96.9877 53.2834 96.487 53.6311Z" fill="url(#paint0_linear_14961_47311)"/>
<defs>
<linearGradient id="paint0_linear_14961_47311" x1="43.9185" y1="25.0001" x2="112.358" y2="145.998" gradientUnits="userSpaceOnUse">
<stop stop-color="#FF9153"/>
<stop offset="1" stop-color="#FF1810"/>
</linearGradient>
</defs>
</svg>
