<svg width="160" height="44" viewBox="0 0 160 44" fill="none" xmlns="http://www.w3.org/2000/svg">
<path d="M18.9525 0L0 10.9608V32.527L18.8324 43.4286L37.8149 32.5862V27.2836L21.6257 36.1707C20.3642 36.704 18.9525 35.7856 18.9525 34.4229V23.3436C18.9525 22.603 19.373 21.9513 20.0638 21.6254L37.8149 12.205V10.9608L18.9525 0ZM13.6062 18.4853V33.7712L5.34635 29.2387V13.9528L17.9914 6.458L26.7017 10.9904L13.6062 18.4853ZM23.8784 30.4829L34.9916 24.4693V18.5445L23.2776 25.0618C23.0674 25.1803 22.9472 25.3876 22.9472 25.595V29.9201C22.9472 30.4237 23.4579 30.7199 23.8784 30.4829Z" fill="white"/>
<path d="M106.176 5.9248H101.1V28.3501H106.176V5.9248Z" fill="white"/>
<path d="M108.85 10.2203H118.371V28.3501H123.477V10.2203H132.998V5.9248H108.85V10.2203Z" fill="white"/>
<path d="M80.8563 5.9248H75.6602V28.3501H98.4272V24.0546H80.8563V5.9248Z" fill="white"/>
<path d="M48.9287 34.3636C48.9287 34.2451 48.9587 34.1267 48.9888 34.0378C49.0188 33.9193 49.1089 33.8304 49.169 33.7712C49.2591 33.6823 49.3492 33.6231 49.4393 33.5934C49.5595 33.5342 49.6496 33.5342 49.7697 33.5342H53.0736C53.1938 33.5342 53.3139 33.5638 53.404 33.5934C53.5242 33.6527 53.6143 33.7119 53.6743 33.7712C53.7645 33.86 53.8245 33.9489 53.8546 34.0378C53.9146 34.1563 53.9146 34.2451 53.9146 34.3636V35.1339H53.0436V34.3636H49.7397V38.6295H53.0436V37.8593H53.9146V38.6295C53.9146 38.748 53.8846 38.8665 53.8546 38.9553C53.8245 39.0738 53.7344 39.1627 53.6743 39.222C53.5842 39.3108 53.4941 39.3701 53.404 39.3997C53.2839 39.4589 53.1938 39.459 53.0736 39.459H49.7697C49.6496 39.459 49.5294 39.4293 49.4393 39.3997C49.3192 39.3701 49.2291 39.2812 49.169 39.222C49.0789 39.1331 49.0188 39.0442 48.9888 38.9553C48.9287 38.8368 48.9287 38.748 48.9287 38.6295V34.3636Z" fill="white"/>
<path d="M68.962 38.6295C68.962 38.748 68.932 38.8665 68.902 38.9553C68.8419 39.0738 68.7818 39.1627 68.7217 39.222C68.6316 39.3108 68.5415 39.3701 68.4514 39.3997C68.3313 39.4589 68.2412 39.459 68.121 39.459H64.6369C64.5168 39.459 64.3966 39.4293 64.3065 39.3997C64.1864 39.3701 64.0963 39.2812 64.0362 39.222C63.9461 39.1331 63.886 39.0442 63.856 38.9553C63.7959 38.8368 63.7959 38.748 63.7959 38.6295V34.3636C63.7959 34.2451 63.8259 34.1267 63.856 34.0378C63.886 33.9193 63.9761 33.8304 64.0362 33.7712C64.1263 33.6823 64.2164 33.6231 64.3065 33.5934C64.4266 33.5342 64.5168 33.5342 64.6369 33.5342H68.121C68.2412 33.5342 68.3613 33.5638 68.4514 33.5934C68.5716 33.6527 68.6617 33.7119 68.7217 33.7712C68.8119 33.86 68.8719 33.9489 68.902 34.0378C68.932 34.1563 68.962 34.2451 68.962 34.3636V38.6295ZM64.6369 34.3636V38.6295H68.121V34.3636H64.6369Z" fill="white"/>
<path d="M82.0583 39.4884L79.8056 35.1041V39.4884H78.9346V33.5044H79.8957L82.2085 38.0072L84.5212 33.5044H85.4523V39.4884H84.5813V35.1041L82.3286 39.4884H82.0583Z" fill="white"/>
<path d="M98.5475 39.4884L96.2949 35.1041V39.4884H95.4238V33.5044H96.385L98.6977 38.0072L101.01 33.5044H101.942V39.4884H101.071V35.1041L98.7878 39.4884H98.5475Z" fill="white"/>
<path d="M111.914 33.5044H116.329V34.3635H112.755V36.0817H115.789V36.9408H112.755V38.6589H116.329V39.518H111.914V33.5044Z" fill="white"/>
<path d="M130.836 35.6373C130.836 36.4668 130.476 36.9408 129.755 37.0593L130.896 39.4884H129.935L128.794 37.0889H126.901V39.4884H126.03V33.5044H129.364C130.355 33.5044 130.836 33.9784 130.836 34.956V35.6373ZM126.901 36.2594H129.304C129.544 36.2594 129.695 36.2002 129.815 36.1113C129.905 36.0224 129.965 35.8447 129.965 35.6077V35.0152C129.965 34.7782 129.905 34.6301 129.815 34.5116C129.725 34.4227 129.544 34.3635 129.304 34.3635H126.901V36.2594Z" fill="white"/>
<path d="M140.688 34.3636C140.688 34.2451 140.718 34.1267 140.748 34.0378C140.808 33.9193 140.868 33.8304 140.928 33.7712C141.018 33.6823 141.108 33.6231 141.198 33.5934C141.318 33.5342 141.408 33.5342 141.528 33.5342H144.832C144.953 33.5342 145.073 33.5638 145.163 33.5934C145.283 33.6527 145.373 33.7119 145.433 33.7712C145.523 33.86 145.583 33.9489 145.613 34.0378C145.643 34.1563 145.673 34.2451 145.673 34.3636V35.1339H144.862V34.3636H141.559V38.6295H144.862V37.8593H145.733V38.6295C145.733 38.748 145.703 38.8665 145.673 38.9553C145.643 39.0738 145.553 39.1627 145.493 39.222C145.403 39.3108 145.313 39.3701 145.223 39.3997C145.103 39.4589 145.013 39.459 144.892 39.459H141.589C141.468 39.459 141.348 39.4293 141.258 39.3997C141.138 39.3701 141.048 39.2812 140.988 39.222C140.898 39.1331 140.838 39.0442 140.808 38.9553C140.778 38.8368 140.748 38.748 140.748 38.6295V34.3636H140.688Z" fill="white"/>
<path d="M155.525 33.5044H159.941V34.3635H156.366V36.0817H159.4V36.9408H156.366V38.6589H159.941V39.518H155.525V33.5044Z" fill="white"/>
<path d="M53.1925 20.6776V19.1076H72.5655V15.138H53.1925V13.6272C53.1925 11.0203 53.8833 10.1908 56.8268 10.1908H62.4134L64.0654 5.95459H56.7968C50.0988 5.95459 48.1465 7.99864 48.1465 13.6568V20.6776C48.1465 26.3358 50.0988 28.3798 56.7968 28.3798H72.6556V24.1436H56.7968C53.8533 24.0844 53.1925 23.3734 53.1925 20.6776Z" fill="white"/>
<path d="M72.6856 10.3091H65.417L67.099 5.9248H72.6856V10.3091Z" fill="white"/>
<path d="M140.507 20.6776V19.1076H159.88V15.138H140.507V13.6272C140.507 11.0203 141.198 10.1908 144.141 10.1908H149.728L151.38 5.95459H144.111C137.413 5.95459 135.461 7.99864 135.461 13.6568V20.6776C135.461 26.3358 137.413 28.3798 144.111 28.3798H159.97V24.1436H144.111C141.168 24.0844 140.507 23.3734 140.507 20.6776Z" fill="white"/>
<path d="M160 10.3091H152.731L154.413 5.9248H160V10.3091Z" fill="white"/>
</svg>
