<svg width="116" height="33" viewBox="0 0 116 33" fill="none" xmlns="http://www.w3.org/2000/svg">
<path d="M13.7406 0L0 8.29513V24.6164L13.6535 32.8667L27.4158 24.6612V20.6482L15.6786 27.3739C14.764 27.7775 13.7406 27.0825 13.7406 26.0512V17.6664C13.7406 17.1059 14.0454 16.6127 14.5463 16.3661L27.4158 9.23674V8.29513L13.7406 0ZM9.86446 13.9896V25.558L3.8761 22.1278V10.5595L13.0437 4.8874L19.3587 8.31755L9.86446 13.9896ZM17.3118 23.0694L25.3689 18.5183V14.0345L16.8763 18.9667C16.7239 19.0564 16.6368 19.2133 16.6368 19.3703V22.6435C16.6368 23.0246 17.0069 23.2488 17.3118 23.0694Z" fill="url(#paint0_linear_15560_24713)"/>
<path d="M76.978 4.48389H73.2979V21.4553H76.978V4.48389Z" fill="url(#paint1_linear_15560_24713)"/>
<path d="M78.915 7.73468H85.818V21.4553H89.5199V7.73468H96.4228V4.48389H78.915V7.73468Z" fill="url(#paint2_linear_15560_24713)"/>
<path d="M58.6207 4.48389H54.8535V21.4553H71.3596V18.2045H58.6207V4.48389Z" fill="url(#paint3_linear_15560_24713)"/>
<path d="M35.4736 26.0066C35.4736 25.917 35.4954 25.8273 35.5172 25.76C35.539 25.6704 35.6043 25.6031 35.6478 25.5583C35.7132 25.491 35.7785 25.4462 35.8438 25.4237C35.9309 25.3789 35.9963 25.3789 36.0834 25.3789H38.4787C38.5658 25.3789 38.6529 25.4013 38.7182 25.4237C38.8053 25.4686 38.8707 25.5134 38.9142 25.5583C38.9795 25.6255 39.0231 25.6928 39.0449 25.76C39.0884 25.8497 39.0884 25.917 39.0884 26.0066V26.5895H38.4569V26.0066H36.0616V29.235H38.4569V28.6521H39.0884V29.235C39.0884 29.3247 39.0666 29.4144 39.0449 29.4816C39.0231 29.5713 38.9578 29.6386 38.9142 29.6834C38.8489 29.7507 38.7836 29.7955 38.7182 29.8179C38.6311 29.8628 38.5658 29.8628 38.4787 29.8628H36.0834C35.9963 29.8628 35.9091 29.8403 35.8438 29.8179C35.7567 29.7955 35.6914 29.7282 35.6478 29.6834C35.5825 29.6161 35.539 29.5489 35.5172 29.4816C35.4736 29.392 35.4736 29.3247 35.4736 29.235V26.0066Z" fill="url(#paint4_linear_15560_24713)"/>
<path d="M49.9974 29.235C49.9974 29.3247 49.9756 29.4144 49.9538 29.4816C49.9103 29.5713 49.8667 29.6386 49.8232 29.6834C49.7579 29.7507 49.6925 29.7955 49.6272 29.8179C49.5401 29.8628 49.4748 29.8628 49.3877 29.8628H46.8617C46.7746 29.8628 46.6875 29.8403 46.6221 29.8179C46.535 29.7955 46.4697 29.7282 46.4262 29.6834C46.3608 29.6161 46.3173 29.5489 46.2955 29.4816C46.252 29.392 46.252 29.3247 46.252 29.235V26.0066C46.252 25.917 46.2737 25.8273 46.2955 25.76C46.3173 25.6704 46.3826 25.6031 46.4262 25.5583C46.4915 25.491 46.5568 25.4462 46.6221 25.4237C46.7092 25.3789 46.7746 25.3789 46.8617 25.3789H49.3877C49.4748 25.3789 49.5619 25.4013 49.6272 25.4237C49.7143 25.4686 49.7796 25.5134 49.8232 25.5583C49.8885 25.6255 49.9321 25.6928 49.9538 25.76C49.9756 25.8497 49.9974 25.917 49.9974 26.0066V29.235ZM46.8617 26.0066V29.235H49.3877V26.0066H46.8617Z" fill="url(#paint5_linear_15560_24713)"/>
<path d="M59.4922 29.8851L57.859 26.5671V29.8851H57.2275V25.3564H57.9244L59.6011 28.7642L61.2779 25.3564H61.9529V29.8851H61.3214V26.5671L59.6882 29.8851H59.4922Z" fill="url(#paint6_linear_15560_24713)"/>
<path d="M71.4473 29.8851L69.8141 26.5671V29.8851H69.1826V25.3564H69.8794L71.5562 28.7642L73.2329 25.3564H73.908V29.8851H73.2765V26.5671L71.6215 29.8851H71.4473Z" fill="url(#paint7_linear_15560_24713)"/>
<path d="M81.1377 25.3564H84.3387V26.0066H81.7474V27.3069H83.9468V27.9571H81.7474V29.2574H84.3387V29.9076H81.1377V25.3564Z" fill="url(#paint8_linear_15560_24713)"/>
<path d="M94.8562 26.9706C94.8562 27.5984 94.5949 27.9571 94.0723 28.0468L94.8998 29.8851H94.2029L93.3755 28.0692H92.0036V29.8851H91.3721V25.3564H93.7892C94.5078 25.3564 94.8562 25.7152 94.8562 26.455V26.9706ZM92.0036 27.4414H93.7456C93.9199 27.4414 94.0287 27.3966 94.1158 27.3293C94.1812 27.2621 94.2247 27.1276 94.2247 26.9482V26.4998C94.2247 26.3205 94.1812 26.2084 94.1158 26.1187C94.0505 26.0514 93.9199 26.0066 93.7456 26.0066H92.0036V27.4414Z" fill="url(#paint9_linear_15560_24713)"/>
<path d="M101.999 26.0066C101.999 25.917 102.021 25.8273 102.043 25.76C102.086 25.6704 102.13 25.6031 102.173 25.5583C102.239 25.491 102.304 25.4462 102.369 25.4237C102.456 25.3789 102.522 25.3789 102.609 25.3789H105.004C105.091 25.3789 105.178 25.4013 105.244 25.4237C105.331 25.4686 105.396 25.5134 105.44 25.5583C105.505 25.6255 105.548 25.6928 105.57 25.76C105.592 25.8497 105.614 25.917 105.614 26.0066V26.5895H105.026V26.0066H102.631V29.235H105.026V28.6521H105.657V29.235C105.657 29.3247 105.636 29.4144 105.614 29.4816C105.592 29.5713 105.527 29.6386 105.483 29.6834C105.418 29.7507 105.353 29.7955 105.287 29.8179C105.2 29.8628 105.135 29.8628 105.048 29.8628H102.652C102.565 29.8628 102.478 29.8403 102.413 29.8179C102.326 29.7955 102.26 29.7282 102.217 29.6834C102.151 29.6161 102.108 29.5489 102.086 29.4816C102.064 29.392 102.043 29.3247 102.043 29.235V26.0066H101.999Z" fill="url(#paint10_linear_15560_24713)"/>
<path d="M112.756 25.3564H115.957V26.0066H113.366V27.3069H115.565V27.9571H113.366V29.2574H115.957V29.9076H112.756V25.3564Z" fill="url(#paint11_linear_15560_24713)"/>
<path d="M38.5656 15.6487V14.4605H52.611V11.4563H38.5656V10.3129C38.5656 8.34004 39.0664 7.71231 41.2004 7.71231H45.2508L46.4484 4.50635H41.1787C36.3227 4.50635 34.9072 6.05328 34.9072 10.3354V15.6487C34.9072 19.9308 36.3227 21.4777 41.1787 21.4777H52.6763V18.2718H41.1787C39.0446 18.2269 38.5656 17.6889 38.5656 15.6487Z" fill="url(#paint12_linear_15560_24713)"/>
<path d="M52.6985 7.80243H47.4287L48.6482 4.48438H52.6985V7.80243Z" fill="url(#paint13_linear_15560_24713)"/>
<path d="M101.867 15.6487V14.4605H115.913V11.4563H101.867V10.3129C101.867 8.34004 102.368 7.71231 104.502 7.71231H108.553L109.75 4.50635H104.48C99.6244 4.50635 98.209 6.05328 98.209 10.3354V15.6487C98.209 19.9308 99.6244 21.4777 104.48 21.4777H115.978V18.2718H104.48C102.346 18.2269 101.867 17.6889 101.867 15.6487Z" fill="url(#paint14_linear_15560_24713)"/>
<path d="M116 7.80194H110.73L111.95 4.48389H116V7.80194Z" fill="url(#paint15_linear_15560_24713)"/>
<defs>
<linearGradient id="paint0_linear_15560_24713" x1="-0.899551" y1="2.65825" x2="29.4174" y2="26.4018" gradientUnits="userSpaceOnUse">
<stop stop-color="#01914D"/>
<stop offset="1" stop-color="#0CE47F"/>
</linearGradient>
<linearGradient id="paint1_linear_15560_24713" x1="73.1771" y1="5.85653" x2="79.4815" y2="7.14005" gradientUnits="userSpaceOnUse">
<stop stop-color="#01914D"/>
<stop offset="1" stop-color="#0CE47F"/>
</linearGradient>
<linearGradient id="paint2_linear_15560_24713" x1="78.3406" y1="5.85653" x2="94.457" y2="21.4663" gradientUnits="userSpaceOnUse">
<stop stop-color="#01914D"/>
<stop offset="1" stop-color="#0CE47F"/>
</linearGradient>
<linearGradient id="paint3_linear_15560_24713" x1="54.3119" y1="5.85653" x2="70.3703" y2="20.5202" gradientUnits="userSpaceOnUse">
<stop stop-color="#01914D"/>
<stop offset="1" stop-color="#0CE47F"/>
</linearGradient>
<linearGradient id="paint4_linear_15560_24713" x1="35.355" y1="25.7416" x2="39.4551" y2="28.845" gradientUnits="userSpaceOnUse">
<stop stop-color="#01914D"/>
<stop offset="1" stop-color="#0CE47F"/>
</linearGradient>
<linearGradient id="paint5_linear_15560_24713" x1="46.1291" y1="25.7416" x2="50.2665" y2="28.9864" gradientUnits="userSpaceOnUse">
<stop stop-color="#01914D"/>
<stop offset="1" stop-color="#0CE47F"/>
</linearGradient>
<linearGradient id="paint6_linear_15560_24713" x1="57.0725" y1="25.7227" x2="61.3743" y2="29.9371" gradientUnits="userSpaceOnUse">
<stop stop-color="#01914D"/>
<stop offset="1" stop-color="#0CE47F"/>
</linearGradient>
<linearGradient id="paint7_linear_15560_24713" x1="69.0276" y1="25.7227" x2="73.3294" y2="29.9371" gradientUnits="userSpaceOnUse">
<stop stop-color="#01914D"/>
<stop offset="1" stop-color="#0CE47F"/>
</linearGradient>
<linearGradient id="paint8_linear_15560_24713" x1="81.0327" y1="25.7245" x2="85.0094" y2="28.3507" gradientUnits="userSpaceOnUse">
<stop stop-color="#01914D"/>
<stop offset="1" stop-color="#0CE47F"/>
</linearGradient>
<linearGradient id="paint9_linear_15560_24713" x1="91.2563" y1="25.7227" x2="95.3568" y2="28.7216" gradientUnits="userSpaceOnUse">
<stop stop-color="#01914D"/>
<stop offset="1" stop-color="#0CE47F"/>
</linearGradient>
<linearGradient id="paint10_linear_15560_24713" x1="101.879" y1="25.7416" x2="105.992" y2="28.8924" gradientUnits="userSpaceOnUse">
<stop stop-color="#01914D"/>
<stop offset="1" stop-color="#0CE47F"/>
</linearGradient>
<linearGradient id="paint11_linear_15560_24713" x1="112.651" y1="25.7245" x2="116.628" y2="28.3507" gradientUnits="userSpaceOnUse">
<stop stop-color="#01914D"/>
<stop offset="1" stop-color="#0CE47F"/>
</linearGradient>
<linearGradient id="paint12_linear_15560_24713" x1="34.3242" y1="5.87899" x2="50.4465" y2="21.7275" gradientUnits="userSpaceOnUse">
<stop stop-color="#01914D"/>
<stop offset="1" stop-color="#0CE47F"/>
</linearGradient>
<linearGradient id="paint13_linear_15560_24713" x1="47.2558" y1="4.75274" x2="50.1724" y2="9.10182" gradientUnits="userSpaceOnUse">
<stop stop-color="#01914D"/>
<stop offset="1" stop-color="#0CE47F"/>
</linearGradient>
<linearGradient id="paint14_linear_15560_24713" x1="97.626" y1="5.87899" x2="113.748" y2="21.7275" gradientUnits="userSpaceOnUse">
<stop stop-color="#01914D"/>
<stop offset="1" stop-color="#0CE47F"/>
</linearGradient>
<linearGradient id="paint15_linear_15560_24713" x1="110.558" y1="4.75225" x2="113.474" y2="9.10134" gradientUnits="userSpaceOnUse">
<stop stop-color="#01914D"/>
<stop offset="1" stop-color="#0CE47F"/>
</linearGradient>
</defs>
</svg>
