<svg width="390" height="507" viewBox="0 0 390 507" fill="none" xmlns="http://www.w3.org/2000/svg">
<g opacity="0.25">
<path opacity="0.54" d="M-58.8601 340.589C-64.8402 325.848 -51.4199 313.225 -34.3216 311.408C-17.2207 309.585 1.92527 315.753 19.5997 322.813C37.2767 329.867 55.0184 338.081 73.2789 340.933C111.072 346.83 140.708 328.747 165.308 310.824C189.907 292.902 217.116 273.361 254.497 275.896C283.806 277.887 312.84 293.207 342.296 301.585C393.713 316.212 447.627 308.029 478.17 280.944" stroke="white" stroke-width="0.342883" stroke-miterlimit="10"/>
<path opacity="0.54" d="M-59.855 341.79C-65.8429 327.066 -52.5833 314.414 -35.5908 312.445C-34.0739 312.266 -32.5324 312.16 -30.9826 312.1C-15.1806 311.554 2.10054 317.068 18.1914 323.342C21.2985 324.553 24.4085 325.799 27.5184 327.046C42.1198 332.904 56.828 338.782 71.8551 341.066C76.7245 341.809 81.4658 342.152 86.0739 342.149C117.167 342.147 142.283 326.37 163.486 310.614C165.024 309.467 166.574 308.317 168.134 307.165C191.232 290.115 216.845 273.192 251.173 274.478C260.992 274.847 270.857 276.502 280.923 279.294C292.807 282.586 304.718 287.357 316.441 291.946C324.445 295.078 332.406 298.135 340.443 300.682C344.221 301.879 348.025 302.954 351.849 303.9C376.195 309.926 401.225 310.566 423.437 306.319C445.702 302.061 465.201 292.994 479.618 279.911" stroke="white" stroke-width="0.342883" stroke-miterlimit="10"/>
<path opacity="0.54" d="M-60.963 342.672C-66.964 327.956 -53.8678 315.281 -36.981 313.16C-35.4695 312.971 -33.9389 312.847 -32.3946 312.778C-16.6768 312.096 0.575774 317.438 16.6782 323.556C19.7876 324.74 22.8919 325.956 26.0043 327.176C40.6068 332.902 55.3243 338.673 70.3236 340.889C75.1848 341.607 79.9205 341.941 84.5256 341.923C115.595 341.82 140.587 325.996 161.564 310.098C163.087 308.944 164.623 307.781 166.159 306.619C188.972 289.406 214.121 272.528 247.763 272.768C257.592 272.835 267.523 273.981 277.867 276.667C290.093 279.841 302.376 284.939 314.248 289.903C322.35 293.289 330.361 296.641 338.482 299.469C342.307 300.799 346.149 302.004 350.043 303.071C374.82 309.871 400.837 310.737 423.651 306.265C446.515 301.787 466.299 292.15 480.949 278.551" stroke="white" stroke-width="0.342883" stroke-miterlimit="10"/>
<path opacity="0.54" d="M-62.5985 344.123C-68.6073 329.424 -55.6798 316.716 -38.8932 314.453C-37.3952 314.252 -35.8755 314.108 -34.3366 314.03C-18.6924 313.211 -1.47638 318.376 14.6351 324.345C17.7388 325.498 20.8561 326.686 23.9627 327.875C38.5665 333.469 53.2852 339.129 68.2649 341.281C73.1151 341.98 77.8398 342.296 82.4394 342.268C113.475 342.068 138.351 326.199 159.105 310.154C160.614 308.986 162.126 307.813 163.646 306.643C186.177 289.263 210.877 272.416 243.81 271.619C253.661 271.382 263.643 272.027 274.274 274.612C286.845 277.661 299.497 283.093 311.516 288.437C319.723 292.079 327.773 295.729 335.981 298.834C339.841 300.298 343.74 301.633 347.696 302.819C372.905 310.393 399.905 311.491 423.321 306.793C446.787 302.09 466.854 291.889 481.744 277.777" stroke="white" stroke-width="0.342883" stroke-miterlimit="10"/>
<path opacity="0.54" d="M-63.5946 345.325C-69.6086 330.638 -56.8444 317.906 -40.1715 315.488C-38.6764 315.271 -37.1727 315.121 -35.6447 315.023C-20.082 314.064 -2.89721 319.062 13.2232 324.882C16.3319 326.002 19.4409 327.165 22.5579 328.331C37.1628 333.794 51.8936 339.34 66.851 341.433C71.6928 342.109 76.4119 342.414 81.0005 342.368C112.01 342.073 136.757 326.148 157.301 309.967C158.794 308.793 160.293 307.606 161.791 306.42C184.037 288.879 208.3 272.018 240.513 270.229C250.379 269.678 260.429 269.83 271.336 272.315C284.26 275.243 297.274 281.005 309.441 286.723C317.743 290.625 325.846 294.563 334.147 297.955C338.045 299.548 342.001 301.013 346.024 302.327C371.662 310.68 399.65 311.999 423.666 307.082C447.731 302.159 468.083 291.388 483.213 276.762" stroke="white" stroke-width="0.342883" stroke-miterlimit="10"/>
<path opacity="0.54" d="M-64.6921 346.202C-70.7219 331.529 -58.1156 318.762 -41.5511 316.198C-40.0694 315.968 -38.5686 315.803 -37.0461 315.696C-21.565 314.595 -4.41132 319.426 11.7207 325.091C14.8317 326.185 17.9431 327.321 21.0545 328.457C35.6605 333.787 50.4006 339.226 65.3303 341.252C70.1611 341.908 74.8693 342.195 79.463 342.138C110.45 341.742 135.069 325.775 155.39 309.446C156.87 308.259 158.342 307.067 159.827 305.868C181.789 288.166 205.618 271.258 237.109 268.504C247.01 267.64 257.098 267.3 268.286 269.674C281.552 272.483 294.939 278.573 307.263 284.669C315.67 288.828 323.823 293.061 332.2 296.732C336.144 298.457 340.138 300.051 344.232 301.488C370.3 310.614 399.272 312.165 423.89 307.022C448.549 301.871 469.191 290.539 484.562 275.4" stroke="white" stroke-width="0.342883" stroke-miterlimit="10"/>
<path opacity="0.54" d="M-66.0034 347.527C-72.0384 332.866 -59.6034 320.071 -43.1365 317.36C-41.6683 317.117 -40.1703 316.936 -38.6612 316.816C-23.2563 315.584 -6.13656 320.232 9.99377 325.75C13.1072 326.817 16.2155 327.917 19.3292 329.026C33.9338 334.231 48.6778 339.553 63.5879 341.514C68.4103 342.146 73.1156 342.418 77.6956 342.348C108.656 341.857 133.155 325.837 153.25 309.366C154.714 308.171 156.172 306.967 157.633 305.757C179.31 287.893 202.72 270.91 233.473 267.226C243.403 266.04 253.538 265.212 265.009 267.489C278.62 270.174 292.376 276.598 304.847 283.073C313.352 287.486 321.554 292.014 330.016 295.967C333.996 297.827 338.046 299.552 342.21 301.11C368.71 311.01 398.668 312.787 423.884 307.425C449.143 302.053 470.07 290.152 485.681 274.5" stroke="white" stroke-width="0.342883" stroke-miterlimit="10"/>
<path opacity="0.54" d="M-67.1062 348.398C-73.1569 333.751 -60.8745 320.93 -44.5239 318.069C-43.0612 317.817 -41.5767 317.623 -40.0704 317.488C-24.747 316.115 -7.65846 320.596 8.48347 325.959C11.5912 326.996 14.7099 328.072 17.818 329.151C32.4318 334.227 47.1797 339.433 62.0594 341.332C66.871 341.945 71.5732 342.202 76.1423 342.113C107.077 341.528 131.452 325.46 151.324 308.842C152.766 307.63 154.208 306.419 155.653 305.202C177.046 287.176 200.025 270.078 230.053 265.497C240.018 263.978 250.191 262.678 261.952 264.848C275.907 267.409 290.033 274.166 302.653 281.016C311.263 285.685 319.508 290.504 328.062 294.743C332.088 296.736 336.177 298.59 340.41 300.271C367.339 310.95 398.283 312.953 424.101 307.365C449.962 301.769 471.171 289.304 487.015 273.135" stroke="white" stroke-width="0.342883" stroke-miterlimit="10"/>
<path opacity="0.54" d="M-68.4093 349.729C-74.4678 335.099 -62.354 322.246 -46.101 319.237C-44.6491 318.965 -43.1701 318.762 -41.6773 318.614C-26.4274 317.104 -9.38342 321.405 6.7755 326.622C9.88821 327.626 13.0012 328.673 16.1117 329.724C30.7266 334.669 45.4839 339.767 60.336 341.599C65.1446 342.196 69.8279 342.431 74.3994 342.336C105.303 341.647 129.562 325.536 149.208 308.775C150.634 307.556 152.063 306.332 153.486 305.098C174.587 286.907 197.143 269.677 226.444 264.226C236.446 262.368 246.666 260.6 258.694 262.667C272.992 265.109 287.49 272.194 300.258 279.418C308.967 284.341 317.259 289.461 325.897 293.982C329.961 296.104 334.104 298.093 338.4 299.893C365.759 311.346 397.681 313.572 424.107 307.768C450.566 301.952 472.063 288.911 488.145 272.235" stroke="white" stroke-width="0.342883" stroke-miterlimit="10"/>
<path opacity="0.54" d="M-69.5095 350.601C-75.5812 335.98 -63.6225 323.106 -47.4832 319.942C-46.0368 319.661 -44.5686 319.44 -43.0892 319.279C-27.9235 317.633 -10.908 321.761 5.25985 326.829C8.37492 327.806 11.4903 328.826 14.6031 329.851C29.2192 334.663 43.9779 339.651 58.8103 341.418C63.6105 341.991 68.2882 342.216 72.8489 342.103C103.727 341.32 127.862 325.16 147.293 308.255C148.703 307.029 150.11 305.788 151.517 304.547C172.333 286.195 194.456 268.792 223.034 262.508C233.066 260.301 243.331 258.072 255.646 260.037C270.288 262.354 285.158 269.767 298.081 277.375C306.892 282.56 315.229 287.966 323.96 292.773C328.059 295.03 332.259 297.149 336.625 299.071C364.412 311.303 397.32 313.755 424.347 307.726C451.407 301.691 473.196 288.084 489.51 270.891" stroke="white" stroke-width="0.342883" stroke-miterlimit="10"/>
<path opacity="0.54" d="M-70.4909 351.8C-76.5704 337.196 -64.7777 324.284 -48.7492 320.979C-47.3162 320.686 -45.8615 320.451 -44.377 320.278C-29.2848 318.496 -12.3058 322.447 3.87105 327.366C6.98046 328.313 10.0982 329.305 13.2133 330.303C27.828 334.99 42.6012 339.859 57.4034 341.564C62.1927 342.118 66.8594 342.325 71.4171 342.196C102.269 341.318 126.28 325.111 145.489 308.058C146.885 306.819 148.276 305.571 149.659 304.319C170.191 285.806 191.874 268.199 219.736 261.107C229.803 258.545 240.106 255.866 252.707 257.729C267.694 259.922 282.934 267.668 296.003 275.656C304.92 281.099 313.299 286.795 322.114 291.885C326.26 294.274 330.498 296.523 334.934 298.567C363.152 311.572 397.046 314.251 424.675 307.997C452.336 301.736 474.408 287.565 490.962 269.859" stroke="white" stroke-width="0.342883" stroke-miterlimit="10"/>
<path opacity="0.54" d="M-72.1296 353.278C-78.2223 338.683 -66.5927 325.747 -50.6618 322.294C-49.2396 321.982 -47.7904 321.738 -46.3193 321.552C-31.3086 319.629 -14.3608 323.413 1.81701 328.179C4.92878 329.099 8.05149 330.059 11.161 331.027C25.7768 335.581 40.5594 340.343 55.3419 341.984C60.1228 342.514 64.7841 342.711 69.3388 342.567C100.168 341.589 124.047 325.33 143.038 308.138C144.418 306.893 145.788 305.628 147.157 304.363C167.404 285.688 188.63 267.857 215.793 259.984C225.888 257.058 236.238 253.932 249.118 255.69C264.447 257.764 280.059 265.838 293.277 274.2C302.291 279.896 310.719 285.888 319.62 291.26C323.801 293.784 328.095 296.163 332.601 298.329C361.251 312.108 396.131 315.012 424.359 308.539C452.618 302.059 474.975 287.318 491.77 269.099" stroke="white" stroke-width="0.342883" stroke-miterlimit="10"/>
<path opacity="0.54" d="M-73.2265 354.162C-79.327 339.584 -67.8579 326.618 -52.0406 323.011C-50.624 322.689 -49.1855 322.426 -47.7173 322.225C-32.7881 320.161 -15.8688 323.772 0.317999 328.389C3.43474 329.276 6.54919 330.212 9.66102 331.153C24.2781 335.575 39.062 340.226 53.8249 341.803C58.5949 342.314 63.2557 342.49 67.7969 342.333C98.6001 341.26 122.355 324.955 141.123 307.614C142.49 306.356 143.844 305.084 145.189 303.809C165.155 284.966 185.906 266.881 212.386 258.256C222.513 254.961 232.912 251.403 246.07 253.056C261.744 255.006 277.725 263.413 291.1 272.153C300.22 278.106 308.696 284.398 317.683 290.047C321.91 292.703 326.251 295.215 330.819 297.5C359.897 312.057 395.763 315.188 424.592 308.49C453.454 301.784 476.093 286.48 493.12 267.744" stroke="white" stroke-width="0.342883" stroke-miterlimit="10"/>
<path opacity="0.54" d="M-74.2049 355.358C-80.3185 340.788 -69.0125 327.798 -53.2928 324.043C-51.8896 323.708 -50.4566 323.436 -48.9993 323.216C-34.1461 321.02 -17.2634 324.455 -1.06754 328.922C2.05155 329.783 5.16296 330.682 8.27453 331.602C22.8928 335.893 37.6887 340.431 52.4213 341.945C57.1803 342.438 61.8303 342.595 66.3685 342.423C97.138 341.252 120.78 324.897 139.323 307.414C140.665 306.145 142.005 304.86 143.335 303.578C163.016 284.573 183.282 266.216 209.098 256.861C219.243 253.183 229.699 249.198 243.144 250.749C259.162 252.574 275.513 261.315 289.035 270.435C298.25 276.647 306.778 283.228 315.849 289.159C320.115 291.945 324.504 294.583 329.14 296.996C358.649 312.327 395.5 315.684 424.929 308.766C454.389 301.841 477.313 285.967 494.58 266.719" stroke="white" stroke-width="0.342883" stroke-miterlimit="10"/>
<path opacity="0.54" d="M-75.6183 356.359C-81.7398 341.806 -70.6023 328.784 -54.9907 324.882C-53.601 324.535 -52.1708 324.247 -50.7269 324.015C-35.9553 321.678 -19.101 324.94 -2.89621 329.258C0.217235 330.088 3.33902 330.964 6.45556 331.851C21.0804 336.02 35.8803 340.441 50.5853 341.888C55.336 342.355 59.9804 342.503 64.5131 342.322C95.2568 341.057 118.775 324.654 137.103 307.027C138.432 305.744 139.756 304.452 141.061 303.159C160.458 283.994 180.231 265.339 205.385 255.269C215.551 251.203 226.06 246.802 239.783 248.247C256.143 249.954 272.858 259.019 286.537 268.517C295.857 274.986 304.427 281.858 313.591 288.075C317.892 290.995 322.339 293.764 327.044 296.299C356.985 312.404 394.819 315.993 424.849 308.85C454.911 301.7 478.117 285.261 495.624 265.5" stroke="white" stroke-width="0.342883" stroke-miterlimit="10"/>
<path opacity="0.54" d="M-76.6 357.578C-82.7346 343.033 -71.7522 329.991 -56.2543 325.934C-54.8673 325.571 -53.4506 325.271 -52.0122 325.029C-37.314 322.555 -20.4989 325.646 -4.29044 329.805C-1.17464 330.609 1.94147 331.454 5.06037 332.315C19.6864 336.352 34.4876 340.662 49.173 342.044C53.9128 342.493 58.5462 342.622 63.0759 342.426C93.7965 341.06 117.191 324.609 135.293 306.84C136.606 305.551 137.906 304.248 139.201 302.936C158.313 283.609 177.567 264.631 202.083 253.879C212.254 249.417 222.834 244.601 236.843 245.945C253.548 247.527 270.632 256.925 284.46 266.797C293.878 273.52 302.498 280.687 311.746 287.187C316.093 290.239 320.578 293.136 325.353 295.794C355.722 312.678 394.545 316.488 425.174 309.125C455.834 301.755 479.326 284.748 497.073 264.473" stroke="white" stroke-width="0.342883" stroke-miterlimit="10"/>
<path opacity="0.54" d="M-78.0143 358.579C-84.1567 344.052 -73.3401 330.971 -57.9423 326.772C-56.5688 326.396 -55.1656 326.083 -53.73 325.826C-39.1132 323.211 -22.3292 326.135 -6.11181 330.145C-2.99104 330.916 0.127452 331.734 3.2407 332.565C17.8679 336.469 32.6811 340.667 47.3363 341.987C52.0677 342.411 56.6956 342.531 61.2144 342.316C91.9093 340.856 115.18 324.357 133.059 306.44C134.359 305.138 135.643 303.828 136.913 302.505C155.741 283.016 174.467 263.712 198.357 252.274C208.527 247.407 219.189 242.195 233.476 243.434C250.525 244.892 267.98 254.624 281.964 264.874C291.487 271.853 300.147 279.317 309.482 286.094C313.865 289.281 318.406 292.308 323.244 295.085C354.044 312.741 393.849 316.784 425.08 309.196C456.342 301.601 480.116 284.029 498.103 263.242" stroke="white" stroke-width="0.342883" stroke-miterlimit="10"/>
<path opacity="0.54" d="M-78.9824 359.776C-85.13 345.261 -74.4844 332.152 -59.1948 327.807C-57.8268 327.422 -56.4344 327.09 -55.0042 326.823C-40.4716 324.074 -23.7134 326.818 -7.48699 330.679C-4.36386 331.423 -1.25102 332.212 1.86459 333.015C16.493 336.788 31.3156 340.878 45.9431 342.13C50.6636 342.536 55.2886 342.641 59.8044 342.41C90.4736 340.856 113.621 324.31 131.277 306.244C132.561 304.935 133.823 303.608 135.077 302.278C153.621 282.628 171.79 262.977 195.08 250.88C205.243 245.599 215.987 239.991 230.55 241.13C247.941 242.469 265.768 252.529 279.898 263.159C289.519 270.391 298.229 278.151 307.657 285.213C312.086 288.532 316.673 291.692 321.581 294.591C352.809 313.027 393.603 317.29 425.432 309.482C457.293 301.668 481.352 283.527 499.571 262.223" stroke="white" stroke-width="0.342883" stroke-miterlimit="10"/>
<path opacity="0.54" d="M-79.9654 360.991C-86.1288 346.49 -75.6356 333.355 -60.4515 328.858C-59.0943 328.455 -57.7074 328.113 -56.2907 327.833C-41.8315 324.946 -25.1124 327.52 -8.877 331.232C-5.75952 331.946 -2.63371 332.705 0.473626 333.484C15.1033 337.125 29.9272 341.105 44.5431 342.296C49.2527 342.683 53.8693 342.763 58.3796 342.523C89.0177 340.865 112.049 324.274 129.48 306.067C130.75 304.744 131.996 303.411 133.226 302.07C151.486 282.258 169.095 262.245 191.791 249.499C201.94 243.799 212.771 237.805 227.622 238.836C245.359 240.051 263.557 250.438 277.834 261.448C287.558 268.944 296.32 276.992 305.822 284.339C310.289 287.787 314.923 291.08 319.9 294.101C351.568 313.314 393.336 317.805 425.769 309.766C458.229 301.733 482.572 283.022 501.032 261.205" stroke="white" stroke-width="0.342883" stroke-miterlimit="10"/>
<path opacity="0.54" d="M-81.3799 361.999C-87.5484 347.51 -77.2263 334.348 -62.1477 329.7C-60.8039 329.283 -59.4224 328.932 -58.0166 328.634C-43.6388 325.606 -26.9482 328.007 -10.7038 331.57C-7.58396 332.256 -4.46379 332.985 -1.34346 333.735C13.2848 337.25 28.1233 341.111 42.7117 342.234C47.4129 342.597 52.024 342.667 56.5207 342.414C87.1331 340.662 110.033 324.02 127.257 305.672C128.503 304.338 129.744 302.995 130.96 301.642C148.936 281.668 165.958 261.288 188.084 247.903C198.203 241.778 209.139 235.399 224.275 236.334C242.355 237.425 260.923 248.146 275.349 259.53C285.179 267.282 293.983 275.622 303.569 283.251C308.08 286.837 312.762 290.257 317.81 293.4C349.908 313.386 392.662 318.104 425.694 309.846C458.755 301.588 483.389 282.316 502.081 259.983" stroke="white" stroke-width="0.342883" stroke-miterlimit="10"/>
<path opacity="0.54" d="M-82.6741 363.338C-88.8584 348.862 -78.6967 335.67 -63.7236 330.871C-62.3853 330.445 -61.0147 330.075 -59.6142 329.767C-45.3125 326.608 -28.6584 328.832 -12.4104 332.236C-9.28556 332.89 -6.16565 333.598 -3.05097 334.318C11.5785 337.701 26.4264 341.455 40.9871 342.51C45.6774 342.854 50.2775 342.906 54.7714 342.638C85.3581 340.79 108.137 324.095 125.135 305.605C126.368 304.258 127.585 302.905 128.785 301.544C146.469 281.405 162.896 260.654 184.468 246.637C194.557 240.087 205.604 233.332 221.012 234.153C239.435 235.125 258.375 246.174 272.955 257.941C282.882 265.947 291.736 274.581 301.415 282.497C305.964 286.212 310.7 289.767 315.81 293.029C348.337 313.794 392.076 318.738 425.71 310.256C459.37 301.778 484.291 281.931 503.22 259.09" stroke="white" stroke-width="0.342883" stroke-miterlimit="10"/>
<path opacity="0.54" d="M-84.0808 364.346C-90.2702 349.883 -80.2689 336.661 -65.4066 331.722C-64.0817 331.283 -62.7139 330.897 -61.3269 330.577C-47.1066 327.277 -30.481 329.328 -14.2266 332.589C-11.0994 333.216 -7.9825 333.888 -4.86546 334.58C9.77318 337.835 24.6144 341.475 39.1556 342.466C43.8376 342.785 48.4322 342.827 52.9231 342.544C83.4868 340.596 106.139 323.86 122.915 305.221C124.132 303.867 125.335 302.501 126.511 301.129C143.913 280.823 159.722 259.691 180.756 245.049C190.801 238.061 201.968 230.934 217.659 231.659C236.426 232.506 255.736 243.889 270.465 256.031C280.498 264.293 289.391 273.225 299.157 281.416C303.744 285.261 308.527 288.948 313.706 292.332C346.665 313.871 391.381 319.038 425.621 310.339C459.882 301.636 485.085 281.226 504.255 257.872" stroke="white" stroke-width="0.342883" stroke-miterlimit="10"/>
<path opacity="0.54" d="M-85.0488 365.559C-91.254 351.109 -81.413 337.858 -66.6561 332.767C-65.3341 332.312 -63.9824 331.92 -62.6062 331.581C-48.4673 328.14 -31.8728 330.024 -15.6068 333.13C-12.4852 333.727 -9.35798 334.375 -6.24658 335.037C8.39327 338.16 23.2439 341.692 37.7575 342.616C42.4285 342.916 47.0202 342.943 51.5002 342.642C82.0382 340.599 104.569 323.809 121.12 305.028C122.323 303.661 123.502 302.284 124.663 300.905C141.781 280.438 156.947 258.913 177.467 243.658C187.457 236.234 198.751 228.738 214.732 229.356C233.851 230.082 253.522 241.794 268.4 254.311C278.528 262.832 287.474 272.053 297.332 280.53C301.963 284.513 306.794 288.327 312.044 291.834C345.433 314.146 391.132 319.544 425.974 310.621C460.834 301.699 486.322 280.719 505.723 256.849" stroke="white" stroke-width="0.342883" stroke-miterlimit="10"/>
<path opacity="0.54" d="M-86.1326 366.443C-92.343 352.005 -82.673 338.726 -68.0136 333.487C-66.705 333.02 -65.3641 332.609 -63.9854 332.264C-49.9199 328.685 -33.3618 330.393 -17.0894 333.355C-13.9655 333.925 -10.8413 334.537 -7.73011 335.179C6.90834 338.176 21.7736 341.589 36.257 342.45C40.9197 342.726 45.4978 342.74 49.9749 342.423C80.4793 340.283 102.895 323.449 119.223 304.519C120.41 303.146 121.575 301.755 122.714 300.36C139.548 279.731 154.07 257.82 174.081 241.939C184.003 234.066 195.44 226.209 211.696 226.727C231.158 227.335 251.201 239.375 266.236 252.269C276.469 261.048 285.457 270.559 295.4 279.319C300.069 283.431 304.949 287.372 310.266 291.006C344.084 314.097 390.77 319.717 426.211 310.574C461.664 301.423 487.442 279.883 507.084 255.5" stroke="white" stroke-width="0.342883" stroke-miterlimit="10"/>
<path opacity="0.54" d="M-87.424 367.782C-93.6502 353.358 -84.1324 340.053 -69.5891 334.665C-68.294 334.185 -66.9559 333.759 -65.5907 333.4C-51.6092 329.687 -35.0796 331.222 -18.8035 334.025C-15.6773 334.569 -12.5507 335.154 -9.43457 335.763C5.2051 338.628 20.0718 341.93 34.5356 342.727C39.1873 342.984 43.7625 342.984 48.2367 342.651C78.718 340.411 101.007 323.534 117.113 304.457C118.286 303.07 119.428 301.669 120.551 300.267C137.1 279.476 150.953 257.168 170.485 240.682C180.337 232.366 191.928 224.145 208.462 224.558C228.268 225.042 248.68 237.415 263.861 250.689C274.192 259.721 283.23 269.527 293.258 278.57C297.97 282.82 302.899 286.887 308.286 290.644C342.535 314.508 390.204 320.36 426.246 310.992C462.298 301.622 488.36 279.512 508.242 254.616" stroke="white" stroke-width="0.342883" stroke-miterlimit="10"/>
<path opacity="0.54" d="M-88.5027 368.667C-94.7341 354.254 -85.3873 340.922 -70.9414 335.386C-69.6492 334.891 -68.3271 334.457 -66.9621 334.078C-53.054 330.227 -36.5608 331.586 -20.2758 334.24C-17.1525 334.747 -14.0262 335.311 -10.9077 335.893C3.73315 338.627 18.6092 341.822 33.0535 342.554C37.6943 342.793 42.2612 342.767 46.7272 342.432C77.1829 340.096 99.3512 323.167 115.239 303.951C116.397 302.557 117.522 301.149 118.624 299.73C134.889 278.777 148.062 256.074 167.12 238.971C176.888 230.199 188.636 221.63 205.456 221.941C225.606 222.301 246.388 235.008 261.718 248.656C272.155 257.944 281.24 268.051 291.355 277.37C296.105 281.749 301.088 285.953 306.537 289.828C341.215 314.471 389.872 320.544 426.522 310.954C463.173 301.365 489.52 278.685 509.642 253.277" stroke="white" stroke-width="0.342883" stroke-miterlimit="10"/>
<path opacity="0.54" d="M-89.7936 370.013C-96.0408 355.614 -86.8437 342.251 -72.5139 336.565C-71.2351 336.056 -69.9159 335.608 -68.5643 335.216C-54.7376 331.224 -38.2754 332.415 -21.9814 334.92C-18.8558 335.401 -15.7245 335.932 -12.6143 336.49C2.02785 339.091 16.9159 342.174 31.33 342.844C35.9625 343.058 40.5239 343.023 44.979 342.669C75.4091 340.239 97.4538 323.261 113.119 303.897C114.255 302.487 115.364 301.071 116.452 299.639C132.434 278.525 144.916 255.43 163.509 237.714C173.191 228.491 185.1 219.562 202.198 219.768C222.69 220.009 243.844 233.044 259.323 247.066C269.857 256.608 278.993 267.01 289.192 276.611C293.98 281.118 299.01 285.455 304.529 289.452C339.637 314.869 389.279 321.167 426.528 311.359C463.781 301.544 490.41 278.301 510.772 252.38" stroke="white" stroke-width="0.342883" stroke-miterlimit="10"/>
<path opacity="0.54" d="M-90.8718 370.894C-97.1241 356.507 -88.098 343.116 -73.8736 337.278C-72.6003 336.761 -71.2919 336.293 -69.9538 335.888C-56.203 331.765 -39.7773 332.78 -23.4716 335.13C-20.3437 335.583 -17.218 336.085 -14.1028 336.609C0.540512 339.079 15.4299 342.051 29.8245 342.657C34.4461 342.852 39.0046 342.802 43.4567 342.432C73.8612 339.908 95.777 322.873 111.225 303.37C112.345 301.953 113.441 300.525 114.505 299.082C130.202 277.806 141.976 254.316 160.124 235.983C169.703 226.303 181.795 217.03 199.172 217.131C220.008 217.248 241.534 230.61 257.165 245.021C267.802 254.826 276.982 265.513 287.274 275.4C292.106 280.046 297.184 284.509 302.773 288.629C338.312 314.819 388.937 321.35 426.787 311.316C464.638 301.282 491.552 277.47 512.154 251.035" stroke="white" stroke-width="0.342883" stroke-miterlimit="10"/>
<path opacity="0.54" d="M-92.1527 372.231C-98.4208 357.858 -89.5549 344.437 -75.4306 338.458C-74.1707 337.927 -72.8677 337.45 -71.5324 337.03C-57.8631 332.766 -41.4658 333.607 -25.1537 335.814C-22.0234 336.241 -18.8927 336.709 -15.7858 337.209C-1.13583 339.557 13.7576 342.412 28.1246 342.95C32.7379 343.12 37.2828 343.058 41.7321 342.673C72.1056 340.044 93.9032 322.972 109.129 303.321C110.235 301.89 111.307 300.451 112.355 299.001C127.768 277.564 138.822 253.682 156.534 234.734C166.011 224.597 178.281 214.972 195.943 214.971C217.124 214.963 239.019 228.659 254.799 243.445C265.542 253.506 274.764 264.485 285.14 274.654C290.01 279.429 295.143 284.028 300.794 288.266C336.762 315.235 388.373 321.987 426.823 311.734C465.275 301.475 492.471 277.098 513.304 250.148" stroke="white" stroke-width="0.342883" stroke-miterlimit="10"/>
<path opacity="0.54" d="M-93.4424 373.577C-99.7156 359.216 -91.0126 345.772 -77.0017 339.637C-75.7526 339.087 -74.4551 338.601 -73.1333 338.168C-59.5453 333.763 -43.1791 334.438 -26.8633 336.486C-23.7361 336.876 -20.6057 337.324 -17.4857 337.795C-2.83456 340.011 12.0709 342.752 26.4077 343.229C31.0101 343.38 35.5521 343.302 39.9904 342.899C70.3383 340.176 92.015 323.049 107.015 303.256C108.106 301.818 109.164 300.366 110.188 298.906C125.317 277.307 135.641 253.035 152.929 233.465C162.285 222.869 174.749 212.899 192.69 212.792C214.212 212.666 236.479 226.69 252.408 241.849C263.248 252.164 272.52 263.437 282.978 273.895C287.895 278.802 293.065 283.53 298.786 287.891C335.185 315.633 387.78 322.617 426.83 312.139C465.88 301.661 493.361 276.715 514.435 249.251" stroke="white" stroke-width="0.342883" stroke-miterlimit="10"/>
<path opacity="0.54" d="M-94.5081 374.46C-100.789 360.116 -92.2543 346.639 -78.3409 340.356C-77.0972 339.797 -75.8186 339.288 -74.4941 338.849C-60.9795 334.307 -44.6497 334.805 -28.3275 336.71C-25.1979 337.073 -22.0651 337.494 -18.9509 337.935C-4.29844 340.019 10.6084 342.65 24.9257 343.062C29.5252 343.198 34.0482 343.098 38.4891 342.688C68.8115 339.871 90.3646 322.697 105.15 302.759C106.227 301.309 107.261 299.846 108.272 298.372C123.12 276.606 132.709 251.956 149.573 231.764C158.808 220.709 171.469 210.387 189.695 210.179C211.562 209.929 234.199 224.286 250.277 239.82C261.222 250.391 270.534 261.962 281.087 272.699C286.039 277.741 291.266 282.599 297.057 287.082C333.887 315.597 387.467 322.808 427.115 312.111C466.767 301.408 494.537 275.902 515.843 247.921" stroke="white" stroke-width="0.342883" stroke-miterlimit="10"/>
<path opacity="0.54" d="M-95.7838 375.799C-102.639 360.186 -92.0938 345.558 -76.081 339.98C-60.0708 334.407 -39.9973 335.936 -20.6394 338.518C-1.28143 341.101 18.5393 344.666 36.7668 342.916C69.26 339.788 91.5624 320.201 106.116 298.275C120.681 276.346 129.518 251.312 145.978 230.499C155.084 218.981 167.954 208.321 186.459 208.008C208.67 207.633 231.676 222.324 247.908 238.241C264.14 254.159 276.742 272.301 295.075 286.718C332.334 316.012 386.898 323.449 427.148 312.526C467.398 301.604 495.453 275.529 516.999 247.036" stroke="white" stroke-width="0.342883" stroke-miterlimit="10"/>
</g>
</svg>
