<svg width="201" height="57" viewBox="0 0 201 57" fill="none" xmlns="http://www.w3.org/2000/svg">
<path d="M24.1906 0L0.5 14.302V42.442L24.0405 56.6667L47.7686 42.5193V35.6003L27.5321 47.1965C25.9552 47.8922 24.1906 46.694 24.1906 44.9159V30.4593C24.1906 29.4929 24.7163 28.6426 25.5798 28.2174L47.7686 15.9254V14.302L24.1906 0ZM17.5077 24.1201V44.0655L7.18294 38.1514V18.206L22.9892 8.42656L33.8771 14.3406L17.5077 24.1201ZM30.3479 39.7749L44.2394 31.9281V24.1974L29.5971 32.7012C29.3342 32.8558 29.1841 33.1264 29.1841 33.397V39.0405C29.1841 39.6976 29.8223 40.0841 30.3479 39.7749Z" fill="white"/>
<path d="M133.218 7.73071H126.873V36.9917H133.218V7.73071Z" fill="white"/>
<path d="M136.561 13.3355H148.462V36.9917H154.845V13.3355H166.746V7.73071H136.561V13.3355Z" fill="white"/>
<path d="M101.569 7.73071H95.0742V36.9917H123.533V31.3869H101.569V7.73071Z" fill="white"/>
<path d="M61.6602 44.8387C61.6602 44.684 61.6977 44.5294 61.7352 44.4135C61.7728 44.2588 61.8854 44.1429 61.9605 44.0656C62.0731 43.9496 62.1858 43.8723 62.2984 43.8337C62.4486 43.7563 62.5612 43.7563 62.7114 43.7563H66.8413C66.9915 43.7563 67.1417 43.795 67.2543 43.8337C67.4045 43.911 67.5171 43.9883 67.5922 44.0656C67.7048 44.1815 67.7799 44.2975 67.8175 44.4135C67.8926 44.5681 67.8926 44.684 67.8926 44.8387V45.8437H66.8038V44.8387H62.6739V50.4048H66.8038V49.3998H67.8926V50.4048C67.8926 50.5594 67.855 50.7141 67.8175 50.83C67.7799 50.9846 67.6673 51.1006 67.5922 51.1779C67.4796 51.2939 67.3669 51.3712 67.2543 51.4098C67.1041 51.4871 66.9915 51.4871 66.8413 51.4871H62.7114C62.5612 51.4871 62.411 51.4485 62.2984 51.4098C62.1482 51.3712 62.0356 51.2552 61.9605 51.1779C61.8479 51.0619 61.7728 50.946 61.7352 50.83C61.6602 50.6754 61.6602 50.5594 61.6602 50.4048V44.8387Z" fill="white"/>
<path d="M86.7018 50.4048C86.7018 50.5594 86.6643 50.7141 86.6267 50.83C86.5516 50.9846 86.4765 51.1006 86.4014 51.1779C86.2888 51.2939 86.1762 51.3712 86.0635 51.4098C85.9134 51.4871 85.8007 51.4871 85.6506 51.4871H81.2954C81.1452 51.4871 80.995 51.4485 80.8824 51.4098C80.7322 51.3712 80.6196 51.2552 80.5445 51.1779C80.4319 51.0619 80.3568 50.946 80.3192 50.83C80.2441 50.6754 80.2441 50.5594 80.2441 50.4048V44.8387C80.2441 44.684 80.2817 44.5294 80.3192 44.4135C80.3568 44.2588 80.4694 44.1429 80.5445 44.0656C80.6571 43.9496 80.7698 43.8723 80.8824 43.8337C81.0326 43.7563 81.1452 43.7563 81.2954 43.7563H85.6506C85.8007 43.7563 85.9509 43.795 86.0635 43.8337C86.2137 43.911 86.3264 43.9883 86.4014 44.0656C86.5141 44.1815 86.5892 44.2975 86.6267 44.4135C86.6643 44.5681 86.7018 44.684 86.7018 44.8387V50.4048ZM81.2954 44.8387V50.4048H85.6506V44.8387H81.2954Z" fill="white"/>
<path d="M103.071 51.5257L100.255 45.805V51.5257H99.166V43.7177H100.367L103.258 49.593L106.149 43.7177H107.313V51.5257H106.224V45.805L103.409 51.5257H103.071Z" fill="white"/>
<path d="M123.684 51.5257L120.868 45.805V51.5257H119.779V43.7177H120.981L123.872 49.593L126.763 43.7177H127.926V51.5257H126.838V45.805L123.984 51.5257H123.684Z" fill="white"/>
<path d="M140.391 43.7177H145.91V44.8386H141.442V47.0805H145.234V48.2015H141.442V50.4434H145.91V51.5644H140.391V43.7177Z" fill="white"/>
<path d="M164.044 46.5007C164.044 47.583 163.594 48.2015 162.693 48.3561L164.119 51.5257H162.918L161.491 48.3948H159.126V51.5257H158.037V43.7177H162.205C163.444 43.7177 164.044 44.3361 164.044 45.6117V46.5007ZM159.126 47.3125H162.129C162.43 47.3125 162.618 47.2352 162.768 47.1192C162.88 47.0032 162.955 46.7713 162.955 46.4621V45.689C162.955 45.3798 162.88 45.1865 162.768 45.0319C162.655 44.9159 162.43 44.8386 162.129 44.8386H159.126V47.3125Z" fill="white"/>
<path d="M176.357 44.8387C176.357 44.684 176.395 44.5294 176.433 44.4135C176.508 44.2588 176.583 44.1429 176.658 44.0656C176.77 43.9496 176.883 43.8723 176.996 43.8337C177.146 43.7563 177.258 43.7563 177.409 43.7563H181.539C181.689 43.7563 181.839 43.795 181.952 43.8337C182.102 43.911 182.214 43.9883 182.289 44.0656C182.402 44.1815 182.477 44.2975 182.515 44.4135C182.552 44.5681 182.59 44.684 182.59 44.8387V45.8437H181.576V44.8387H177.446V50.4048H181.576V49.3998H182.665V50.4048C182.665 50.5594 182.627 50.7141 182.59 50.83C182.552 50.9846 182.44 51.1006 182.365 51.1779C182.252 51.2939 182.139 51.3712 182.027 51.4098C181.876 51.4871 181.764 51.4871 181.614 51.4871H177.484C177.334 51.4871 177.183 51.4485 177.071 51.4098C176.921 51.3712 176.808 51.2552 176.733 51.1779C176.62 51.0619 176.545 50.946 176.508 50.83C176.47 50.6754 176.433 50.5594 176.433 50.4048V44.8387H176.357Z" fill="white"/>
<path d="M194.906 43.7177H200.425V44.8386H195.957V47.0805H199.75V48.2015H195.957V50.4434H200.425V51.5644H194.906V43.7177Z" fill="white"/>
<path d="M66.993 26.9804V24.9318H91.2093V19.7521H66.993V17.7808C66.993 14.3792 67.8566 13.2969 71.5359 13.2969H78.5192L80.5842 7.76941H71.4984C63.1259 7.76941 60.6855 10.4365 60.6855 17.8194V26.9804C60.6855 34.3633 63.1259 37.0304 71.4984 37.0304H91.3219V31.5029H71.4984C67.819 31.4256 66.993 30.4979 66.993 26.9804Z" fill="white"/>
<path d="M91.3592 13.4515H82.2734L84.3759 7.73071H91.3592V13.4515Z" fill="white"/>
<path d="M176.134 26.9804V24.9318H200.35V19.7521H176.134V17.7808C176.134 14.3792 176.997 13.2969 180.677 13.2969H187.66L189.725 7.76941H180.639C172.267 7.76941 169.826 10.4365 169.826 17.8194V26.9804C169.826 34.3633 172.267 37.0304 180.639 37.0304H200.463V31.5029H180.639C176.96 31.4256 176.134 30.4979 176.134 26.9804Z" fill="white"/>
<path d="M200.5 13.4515H191.414L193.517 7.73071H200.5V13.4515Z" fill="white"/>
</svg>
