<svg width="20" height="20" viewBox="0 0 20 20" fill="none" xmlns="http://www.w3.org/2000/svg">
<mask id="mask0_15560_24793" style="mask-type:alpha" maskUnits="userSpaceOnUse" x="0" y="0" width="20" height="20">
<g clip-path="url(#clip0_15560_24793)">
<path fill-rule="evenodd" clip-rule="evenodd" d="M2.54676 8.84598C3.43907 8.52803 4.37806 8.10545 5.10216 7.49366C5.96216 6.76699 6.31191 5.83111 6.54679 4.84598C6.84833 3.58034 6.96881 2.23212 7.33445 0.964429C7.46984 0.49366 7.73038 0.315708 7.84217 0.236733C8.12474 0.0372461 8.41036 -0.0160767 8.67907 0.00392329C8.99753 0.0270002 9.43499 0.147505 9.72268 0.681351C9.76371 0.757761 9.81702 0.874177 9.85292 1.03366C9.87907 1.15059 9.896 1.51622 9.92369 1.66699C9.99292 2.03827 10.0509 2.40957 10.1052 2.7829C10.2863 4.02546 10.3904 5.08083 10.9622 6.22237C11.7381 7.77212 12.5155 8.72032 13.5699 9.14032C14.5894 9.54648 15.8083 9.47008 17.3658 9.15162C17.514 9.11572 17.6606 9.08495 17.8057 9.05982C18.4924 8.93982 19.1488 9.39059 19.2837 10.0747C19.4186 10.7583 18.9822 11.4244 18.3017 11.5747C18.1596 11.606 18.0196 11.6357 17.8811 11.6629C15.7765 12.1839 13.3401 14.0434 11.9242 15.6716C11.4878 16.1737 10.8488 17.5772 10.197 18.4726C9.71601 19.1331 9.17549 19.5685 8.72164 19.7224C8.41754 19.826 8.16114 19.8101 7.94934 19.7578C7.64165 19.6819 7.38628 19.5152 7.19038 19.2501C7.08371 19.1049 6.98472 18.9106 6.93754 18.6624C6.91497 18.5429 6.91242 18.2393 6.91294 18.1019C6.78011 17.645 6.61755 17.1988 6.49909 16.7378C6.21652 15.6378 5.66215 14.9413 5.00369 14.0213C4.38779 13.1603 3.72628 12.6193 2.75653 12.1875C2.63038 12.1567 1.61243 11.9075 1.25294 11.7644C0.727813 11.5547 0.477543 11.2034 0.386774 11.0142C0.232415 10.6931 0.216532 10.4126 0.247301 10.1788C0.292942 9.83367 0.447815 9.53829 0.722687 9.29983C0.892943 9.15162 1.1473 9.0075 1.48782 8.93725C1.75089 8.88238 2.44881 8.85059 2.54676 8.84598ZM8.51857 7.05314C7.57021 9.15162 5.97241 11.5562 6.02574 11.6629C7.16215 13.9326 12.6211 11.5224 12.6211 11.5224L9.25485 12.1875C8.22151 12.9547 10.7042 13.167 9.98933 13.989C9.69497 14.3275 9.67587 12.1821 9.25485 12.9031C8.87228 11.6596 7.87601 13.6291 7.08934 12.5291C6.08127 11.7644 6.79959 11.2417 6.02574 10.7268C6.62625 10.4186 6.59037 10.0988 7.08934 9.67724C7.92011 8.97519 8.13703 7.93673 8.51857 7.05314Z" fill="url(#paint0_linear_15560_24793)"/>
<path d="M6.61168 6.64209L10.8558 7.5814L13.3241 11.3716L11.8758 13.062L10.1779 14.4929L6.15808 13.4941L5.17188 10.3281L6.61168 6.64209Z" fill="url(#paint1_linear_15560_24793)"/>
</g>
</mask>
<g mask="url(#mask0_15560_24793)">
<rect width="20" height="20" fill="url(#paint2_linear_15560_24793)"/>
</g>
<defs>
<linearGradient id="paint0_linear_15560_24793" x1="0.234375" y1="9.89938" x2="19.794" y2="10.0223" gradientUnits="userSpaceOnUse">
<stop stop-color="#FF9153"/>
<stop offset="1" stop-color="#FF1810"/>
</linearGradient>
<linearGradient id="paint1_linear_15560_24793" x1="5.17188" y1="10.5675" x2="13.5317" y2="10.6241" gradientUnits="userSpaceOnUse">
<stop stop-color="#FF9153"/>
<stop offset="1" stop-color="#FF1810"/>
</linearGradient>
<linearGradient id="paint2_linear_15560_24793" x1="1.5598e-07" y1="10" x2="20.5094" y2="10.1337" gradientUnits="userSpaceOnUse">
<stop stop-color="#FF9153"/>
<stop offset="1" stop-color="#FF1810"/>
</linearGradient>
<clipPath id="clip0_15560_24793">
<rect width="20" height="20" fill="white"/>
</clipPath>
</defs>
</svg>
