<svg width="146" height="40" viewBox="0 0 146 40" fill="none" xmlns="http://www.w3.org/2000/svg">
<path d="M0 0.999999C0 0.447714 0.447715 0 1 0H146L94.3709 5.60872C93.1441 5.74199 93.1998 7.54446 94.4325 7.60179L146 10L112.499 11.2924C111.315 11.338 111.179 13.04 112.341 13.2722L139.312 18.6633C140.442 18.8891 140.357 20.5314 139.21 20.6395L101.172 24.2218C99.9388 24.338 99.9763 26.1509 101.214 26.216L146 28.5714L104.386 30.4486C103.196 30.5023 103.081 32.219 104.253 32.4315L135.057 38.016C136.256 38.2335 136.097 40 134.878 40H0.999996C0.447711 40 0 39.5523 0 39V0.999999Z" fill="url(#paint0_linear_16015_38488)"/>
<defs>
<linearGradient id="paint0_linear_16015_38488" x1="1.13865e-06" y1="20" x2="149.64" y2="23.5617" gradientUnits="userSpaceOnUse">
<stop stop-color="#FF9153"/>
<stop offset="1" stop-color="#FF1810"/>
</linearGradient>
</defs>
</svg>
