<svg width="20" height="22" viewBox="0 0 20 22" fill="none" xmlns="http://www.w3.org/2000/svg">
<path d="M10.0199 0.0910645L0.651367 5.5977V16.4324L9.96055 21.9092L19.344 16.4621V13.7981L11.3413 18.263C10.7178 18.5308 10.0199 18.0695 10.0199 17.3849V11.8187C10.0199 11.4466 10.2278 11.1192 10.5693 10.9555L19.344 6.22278V5.5977L10.0199 0.0910645ZM7.37714 9.37793V17.0574L3.29416 14.7804V7.10086L9.54482 3.33551L13.8505 5.61258L7.37714 9.37793ZM12.4549 15.4055L17.9483 12.3843V9.40769L12.1579 12.6819C12.054 12.7414 11.9946 12.8456 11.9946 12.9498V15.1227C11.9946 15.3757 12.247 15.5245 12.4549 15.4055Z" fill="white"/>
</svg>
